SplineFontDB: 3.0
FontName: Untitled1
FullName: Untitled1
FamilyName: Untitled1
Weight: Regular
Copyright: Copyright (c) 2015, Anonymous
UComments: "2015-1-19: Created with FontForge (http://fontforge.org)"
Version: 001.000
ItalicAngle: 0
UnderlinePosition: -102.4
UnderlineWidth: 51.2
Ascent: 819
Descent: 205
InvalidEm: 0
LayerCount: 2
Layer: 0 0 "+gMxmbwAA" 1
Layer: 1 0 "+Uk1mbwAA" 0
XUID: [1021 270 1865933334 12695]
FSType: 0
OS2Version: 0
OS2_WeightWidthSlopeOnly: 0
OS2_UseTypoMetrics: 1
CreationTime: 1421634075
ModificationTime: 1422322357
PfmFamily: 17
TTFWeight: 400
TTFWidth: 5
LineGap: 92
VLineGap: 0
OS2TypoAscent: 0
OS2TypoAOffset: 1
OS2TypoDescent: 0
OS2TypoDOffset: 1
OS2TypoLinegap: 92
OS2WinAscent: 0
OS2WinAOffset: 1
OS2WinDescent: 0
OS2WinDOffset: 1
HheadAscent: 0
HheadAOffset: 1
HheadDescent: 0
HheadDOffset: 1
OS2CapHeight: 0
OS2XHeight: 0
OS2Vendor: 'PfEd'
MarkAttachClasses: 1
DEI: 91125
LangName: 1033
Encoding: UnicodeFull
UnicodeInterp: none
NameList: AGL For New Fonts
DisplaySize: -48
AntiAlias: 1
FitToEm: 1
WinInfo: 982984 38 14
BeginPrivate: 0
EndPrivate
BeginChars: 1114112 78

StartChar: uF0000
Encoding: 983040 983040 0
Width: 1024
VWidth: -307
Flags: W
HStem: -13 64<128 640> 499 64<128 640>
VStem: 64 64<51 499> 640 64<51 233 333 499> 896 64<164 402>
LayerCount: 2
Back
Fore
SplineSet
640 563 m 2
 675 563 704 534 704 499 c 2
 704 333 l 1
 910 494 l 2
 920 502 928 505 936 505 c 0
 950 505 960 492 960 469 c 2
 960 96 l 2
 960 73 950 61 936 61 c 0
 928 61 920 64 910 72 c 2
 704 233 l 1
 704 51 l 2
 704 16 675 -13 640 -13 c 2
 128 -13 l 2
 93 -13 64 16 64 51 c 2
 64 499 l 2
 64 534 93 563 128 563 c 2
 640 563 l 2
640 499 m 1
 128 499 l 1
 128 51 l 1
 640 51 l 1
 640 499 l 1
896 402 m 1
 744 283 l 1
 896 164 l 1
 896 402 l 1
EndSplineSet
Validated: 1
EndChar

StartChar: uF0001
Encoding: 983041 983041 1
Width: 1024
VWidth: 0
Flags: W
HStem: 51 64<154 324.996> 435 64<154 323.996>
VStem: 90 64<115 435> 524 64<-55 605> 717 63<180.237 355.763> 845 63<159.653 390.347>
LayerCount: 2
Back
Fore
SplineSet
652 691 m 1025,0,-1
524 605 m 1,1,-1
 366 471 l 2,2,-1
 341 450 301 435 268 435 c 2,5,-1
 154 435 l 1,6,-1
 154 115 l 1,7,-1
 268 115 l 2,8,-1
 301 115 341 100 366 79 c 2,11,-1
 524 -55 l 1,12,-1
 524 605 l 1,1,-1
558 691 m 0,13,-1
 575 691 588 677 588 659 c 2,16,-1
 588 -109 l 2,17,-1
 588 -127 575 -141 558 -141 c 0,20,-1
 541 -141 516 -131 503 -120 c 2,23,-1
 325 30 l 2,24,-1
 312 41 286 51 268 51 c 2,27,-1
 122 51 l 2,28,-1
 104 51 90 65 90 83 c 2,31,-1
 90 467 l 2,32,-1
 90 485 104 499 122 499 c 2,35,-1
 268 499 l 2,36,-1
 286 499 311 509 324 520 c 2,39,-1
 503 670 l 2,40,-1
 516 681 541 691 558 691 c 0,13,-1
707 445 m 1,43,-1
 756 396 780 332 780 268 c 0,46,-1
 780 204 756 140 707 91 c 1,49,-1
 662 136 l 1,50,-1
 698 172 717 220 717 268 c 0,53,-1
 717 316 698 364 662 400 c 1,56,-1
 707 445 l 1,43,-1
796 547 m 1,57,-1
 871 472 908 373 908 275 c 0,60,-1
 908 177 871 78 796 3 c 1,63,-1
 751 49 l 1,64,-1
 813 111 845 193 845 275 c 0,67,-1
 845 357 813 439 751 501 c 1,70,-1
 796 547 l 1,57,-1
EndSplineSet
Validated: 1
EndChar

StartChar: uF0002
Encoding: 983042 983042 2
Width: 1024
VWidth: 0
Flags: W
HStem: -155 56<318.516 484 540 704.548> 39 55<434.802 484 540 597.39> 563 55<125 236 788 898> 673 56<291 733>
VStem: 236 55<342 563 618 673> 484 56<-99 39> 733 55<342 563 618 673>
CounterMasks: 1 0e
LayerCount: 2
Back
Fore
SplineSet
788 342 m 1
 851 389 888 459 898 563 c 1
 788 563 l 1
 788 342 l 1
733 287 m 2
 733 673 l 1
 291 673 l 1
 291 287 l 2
 291 177 442 94 512 94 c 0
 600 94 733 188 733 287 c 2
913 618 m 2
 936 618 954 600 954 577 c 0
 954 447 891 332 788 259 c 1
 770 148 651 39 540 39 c 1
 540 -99 l 1
 678 -99 l 2
 687 -99 705 -104 705 -127 c 0
 705 -150 689 -155 678 -155 c 2
 346 -155 l 2
 337 -155 318 -150 318 -127 c 0
 318 -104 333 -99 346 -99 c 2
 484 -99 l 1
 484 39 l 1
 382 39 254 148 236 259 c 1
 133 332 70 447 70 577 c 0
 70 600 88 618 111 618 c 2
 236 618 l 1
 236 673 l 2
 236 703 260 729 291 729 c 2
 733 729 l 2
 764 729 788 703 788 673 c 2
 788 618 l 1
 913 618 l 2
236 342 m 1
 236 563 l 1
 125 563 l 1
 143 451 172 403 236 342 c 1
EndSplineSet
Validated: 1
EndChar

StartChar: uF0003
Encoding: 983043 983043 3
Width: 1024
VWidth: 0
Flags: W
HStem: -141 64<160 864> 51 64<160 224 288 736 800 864> 179 64<288 480 544 736> 665 64<452.213 571.787>
VStem: 96 64<-77 51> 224 64<115 179> 352 64<507.93 628.787> 480 64<243 418.481> 608 64<507.93 628.787> 736 64<115 179> 864 64<-77 51>
LayerCount: 2
Back
Fore
SplineSet
896 115 m 2
 914 115 928 101 928 83 c 2
 928 -109 l 2
 928 -127 914 -141 896 -141 c 2
 128 -141 l 2
 110 -141 96 -127 96 -109 c 2
 96 83 l 2
 96 101 110 115 128 115 c 2
 224 115 l 1
 224 224 l 2
 224 235 232 243 243 243 c 2
 480 243 l 1
 480 413 l 1
 407 428 352 492 352 569 c 0
 352 657 424 729 512 729 c 0
 600 729 672 657 672 569 c 0
 672 492 617 428 544 413 c 1
 544 243 l 1
 781 243 l 2
 792 243 800 235 800 224 c 2
 800 115 l 1
 896 115 l 2
736 179 m 1
 288 179 l 1
 288 115 l 1
 736 115 l 1
 736 179 l 1
512 665 m 0
 459 665 416 622 416 569 c 0
 416 516 459 473 512 473 c 0
 565 473 608 516 608 569 c 0
 608 622 565 665 512 665 c 0
864 51 m 1
 160 51 l 1
 160 -77 l 1
 864 -77 l 1
 864 51 l 1
EndSplineSet
Validated: 1
EndChar

StartChar: uF0004
Encoding: 983044 983044 4
Width: 1024
VWidth: 0
Flags: W
HStem: -77 64<193.411 830.589> 627 64<193.411 702.589>
VStem: 128 64<-11.5894 625.589> 832 64<-11.5894 309.589>
LayerCount: 2
Back
Fore
SplineSet
864 311 m 0
 882 311 896 297 896 279 c 2
 896 -26 l 2
 896 -44 891 -71 886 -73 c 0
 881 -75 863 -77 845 -77 c 2
 179 -77 l 2
 161 -77 134 -72 132 -67 c 0
 130 -62 128 -44 128 -26 c 2
 128 640 l 2
 128 658 133 685 138 687 c 0
 143 689 161 691 179 691 c 2
 672 691 l 2
 690 691 704 677 704 659 c 0
 704 641 690 627 672 627 c 2
 224 627 l 2
 206 627 192 613 192 595 c 2
 192 19 l 2
 192 1 206 -13 224 -13 c 2
 800 -13 l 2
 818 -13 832 1 832 19 c 2
 832 279 l 2
 832 297 846 311 864 311 c 0
919 604 m 1
 407 92 l 1
 361 138 l 1
 873 650 l 1
 919 604 l 1
EndSplineSet
Validated: 1
EndChar

StartChar: uF0005
Encoding: 983045 983045 5
Width: 1024
VWidth: 0
Flags: W
HStem: -127 64<256.768 447.406> -1 64<628.034 792.242> 63 64<449.411 510.589> 127 64<385.411 446.589> 191 64<449.411 510.589 769.411 830.589> 255 64<385.411 446.589 833.411 887.572> 319 64<769.411 830.589> 383 104<255.498 320> 445 90<679.192 763.401> 575 64<137.443 256.017> 615 64<705.664 793.72>
VStem: 64 64<65.7681 256.834> 73 64<531.44 574.367> 320 67<487.388 530.691 594 706> 384 64<128.411 189.589 256.411 317.589> 448 64<64.4106 125.589 192.411 253.589> 574 64<77.2195 256.939> 608 64<546.094 583.476 649 703> 768 64<192.411 253.589 320.411 381.589> 795 64<562.661 609.177> 896 64<166.758 309.753>
LayerCount: 2
Back
Fore
SplineSet
864 319 m 0xc480a8
 874 319 882 315 888 308 c 1
 865 387 792 445 705 445 c 0
 641 445 586 414 551 366 c 1
 605 314 638 241 638 160 c 0
 638 132 634 105 627 80 c 1
 651 69 677 63 705 63 c 0
 810 63 896 149 896 254 c 0
 896 262 896 269 895 277 c 1
 891 264 878 255 864 255 c 0
 846 255 832 269 832 287 c 0
 832 305 846 319 864 319 c 0xc480a8
800 255 m 0x880028
 818 255 832 241 832 223 c 0
 832 205 818 191 800 191 c 0
 782 191 768 205 768 223 c 0
 768 241 782 255 800 255 c 0x880028
800 383 m 0x820028
 818 383 832 369 832 351 c 0
 832 333 818 319 800 319 c 0
 782 319 768 333 768 351 c 0
 768 369 782 383 800 383 c 0x820028
480 127 m 0xa00108
 498 127 512 113 512 95 c 0
 512 77 498 63 480 63 c 0
 462 63 448 77 448 95 c 0
 448 113 462 127 480 127 c 0xa00108
480 255 m 0x880108
 498 255 512 241 512 223 c 0
 512 205 498 191 480 191 c 0
 462 191 448 205 448 223 c 0
 448 241 462 255 480 255 c 0x880108
416 191 m 0x900208
 434 191 448 177 448 159 c 0
 448 141 434 127 416 127 c 0
 398 127 384 141 384 159 c 0
 384 177 398 191 416 191 c 0x900208
416 319 m 0x840208
 434 319 448 305 448 287 c 0
 448 269 434 255 416 255 c 0
 398 255 384 269 384 287 c 0
 384 305 398 319 416 319 c 0x840208
319 594 m 1
 317 706 l 1
 381 708 l 1
 387 445 l 1
 428 440 467 426 501 405 c 1
 534 450 581 483 635 499 c 1
 632 503 628 507 625 511 c 1
 608 511 l 1
 608 703 l 1
 672 703 l 1
 672 649 l 1
 696 665 734 679 766 679 c 0
 804 679 835 662 850 632 c 0
 856 620 859 608 859 595 c 0
 859 575 852 555 838 537 c 0
 826 521 809 506 789 495 c 1
 888 460 960 365 960 254 c 0
 960 113 846 -1 705 -1 c 0
 668 -1 634 7 602 21 c 1
 553 -67 459 -127 351 -127 c 0
 193 -127 64 2 64 160 c 0xc0b458
 64 281 140 385 246 427 c 1
 230 430 214 434 197 440 c 0
 118 468 73 512 73 559 c 0
 73 568 75 576 78 585 c 0
 84 601 105 639 170 639 c 0xc04808
 219 639 284 615 319 594 c 1
766 615 m 0
 729 615 677 580 677 554 c 0
 677 551 678 548 679 546 c 0
 683 538 693 535 706 535 c 0
 743 535 795 570 795 596 c 0
 795 599 794 602 793 604 c 0
 789 612 779 615 766 615 c 0
170 575 m 0x814c08
 153 575 141 571 138 563 c 0
 137 562 137 561 137 559 c 0
 137 529 238 487 288 487 c 0
 305 487 316 490 319 498 c 0
 320 499 320 500 320 502 c 0
 320 532 220 575 170 575 c 0x814c08
351 383 m 0
 228 383 128 283 128 160 c 0
 128 37 228 -63 351 -63 c 0
 474 -63 574 37 574 160 c 0x811088
 574 283 474 383 351 383 c 0
EndSplineSet
Validated: 1
EndChar

StartChar: uF0006
Encoding: 983046 983046 6
Width: 1024
VWidth: 0
Flags: W
HStem: -77 64<330.23 788.45> 384 64<570 792.95>
VStem: 128 64<-11.5894 433.589> 243 64<76.9727 400.596> 582 64<567.317 670.691> 832 64<37.1875 341.265>
LayerCount: 2
Back
Fore
SplineSet
160 435 m 0
 178 435 192 421 192 403 c 2
 192 19 l 2
 192 1 178 -13 160 -13 c 0
 142 -13 128 1 128 19 c 2
 128 403 l 2
 128 421 142 435 160 435 c 0
527 690 m 1
 521 679 512 662 505 648 c 0
 472 580 424 477 310 394 c 1
 308 376 307 346 307 309 c 0
 307 230 311 118 318 15 c 1
 334 5 371 -13 448 -13 c 2
 704 -13 l 2
 793 -13 832 15 832 179 c 0
 832 353 799 384 730 384 c 2
 571 384 l 1
 449 384 l 1
 518 484 l 2
 546 525 575 573 580 585 c 0
 581 589 582 595 582 603 c 0
 582 621 578 647 564 666 c 0
 555 679 543 687 527 690 c 1
512 755 m 0
 614 755 646 666 646 604 c 0
 646 588 644 573 640 563 c 0
 629 533 570 448 570 448 c 1
 730 448 l 2
 886 448 896 307 896 179 c 0
 896 20 860 -77 704 -77 c 2
 448 -77 l 2
 292 -77 256 -13 256 -13 c 1
 256 -13 243 177 243 310 c 0
 243 376 246 428 256 435 c 0
 448 563 448 755 512 755 c 0
EndSplineSet
Validated: 1
EndChar

StartChar: uF0007
Encoding: 983047 983047 7
Width: 1024
VWidth: 0
Flags: W
HStem: -141 64<125 901> 627 64<408.124 595.876>
VStem: 225 64<320.282 507.658> 715 64<320.282 507.658>
LayerCount: 2
Back
Fore
SplineSet
502 627 m 0
 384 627 289 531 289 414 c 0
 289 359 310 307 348 267 c 0
 359 255 365 239 365 223 c 0
 365 217 365 211 363 206 c 0
 356 184 339 167 317 161 c 0
 221 137 142 -9 125 -77 c 1
 901 -77 l 1
 898 -58 888 -26 862 15 c 0
 826 75 761 144 689 161 c 0
 666 166 648 183 642 205 c 0
 640 211 639 218 639 224 c 0
 639 240 645 256 656 267 c 0
 694 307 715 359 715 414 c 0
 715 531 620 627 502 627 c 0
502 691 m 0
 655 691 779 567 779 414 c 0
 779 340 750 273 703 223 c 1
 846 190 966 6 966 -87 c 0
 966 -119 951 -141 918 -141 c 2
 86 -141 l 2
 67 -141 59 -126 59 -101 c 0
 59 -14 166 189 301 223 c 1
 254 273 225 340 225 414 c 0
 225 567 349 691 502 691 c 0
EndSplineSet
Validated: 1
EndChar

StartChar: uF0009
Encoding: 983049 983049 8
Width: 1024
VWidth: 0
Flags: W
HStem: -109 64<373.853 615.462> 371 64<625.411 824> 659 64<373.853 614.097>
VStem: 80 64<184.853 429.147> 880 64<466 689.589>
LayerCount: 2
Back
Fore
SplineSet
912 691 m 0
 930 691 944 677 944 659 c 2
 944 403 l 2
 944 385 930 371 912 371 c 2
 656 371 l 2
 638 371 624 385 624 403 c 0
 624 421 638 435 656 435 c 2
 824 435 l 1
 772 566 645 659 496 659 c 0
 302 659 144 501 144 307 c 0
 144 113 302 -45 496 -45 c 0
 649 -45 779 53 827 189 c 1
 843 183 888 180 892 180 c 1
 838 13 681 -109 496 -109 c 0
 267 -109 80 78 80 307 c 0
 80 536 267 723 496 723 c 0
 669 723 818 617 880 466 c 1
 880 466 880 467 880 467 c 2
 880 659 l 2
 880 677 894 691 912 691 c 0
EndSplineSet
Validated: 1
EndChar

StartChar: uF000A
Encoding: 983050 983050 9
Width: 1024
VWidth: 0
Flags: W
HStem: -141 64<389.187 634.813> 691 64<389.187 634.813>
VStem: 64 64<184.187 429.813> 896 64<184.187 429.813>
LayerCount: 2
Back
Fore
SplineSet
343 522 m 1
 512 352 l 1
 681 522 l 1
 727 476 l 1
 557 307 l 1
 727 138 l 1
 681 92 l 1
 512 262 l 1
 343 92 l 1
 297 138 l 1
 467 307 l 1
 297 476 l 1
 343 522 l 1
512 755 m 0
 759 755 960 554 960 307 c 0
 960 60 759 -141 512 -141 c 0
 265 -141 64 60 64 307 c 0
 64 554 265 755 512 755 c 0
512 691 m 0
 300 691 128 519 128 307 c 0
 128 95 300 -77 512 -77 c 0
 724 -77 896 95 896 307 c 0
 896 519 724 691 512 691 c 0
EndSplineSet
Validated: 1
EndChar

StartChar: uF000B
Encoding: 983051 983051 10
Width: 1024
VWidth: 0
Flags: W
HStem: 273 136<86.5095 187.491 461.86 563.037 836.963 938.14>
VStem: 69 136<290.509 391.491> 444 137<291.616 390.384> 819 137<291.616 390.384>
LayerCount: 2
Back
Fore
SplineSet
137 409 m 0
 175 409 205 379 205 341 c 0
 205 303 175 273 137 273 c 0
 99 273 69 303 69 341 c 0
 69 379 99 409 137 409 c 0
512 409 m 0
 550 409 581 379 581 341 c 0
 581 303 550 273 512 273 c 0
 475 273 444 303 444 341 c 0
 444 379 475 409 512 409 c 0
888 409 m 0
 925 409 956 379 956 341 c 0
 956 303 925 273 888 273 c 0
 850 273 819 303 819 341 c 0
 819 379 850 409 888 409 c 0
EndSplineSet
Validated: 1
EndChar

StartChar: uF000C
Encoding: 983052 983052 11
Width: 1024
VWidth: 0
Flags: W
HStem: -141 64<422.669 565.331> -13 64<174 334 398 590 654 814> 115 64<215 773> 691 64<388.881 602.987>
VStem: 174 64<189.242 519.876> 334 64<-51.5488 -13> 590 64<-51.5488 -13> 750 64<189.242 520.625>
LayerCount: 2
Back
Fore
SplineSet
494 755 m 0
 686 755 814 627 814 371 c 0
 814 166 896 43 896 2 c 0
 896 -8 891 -13 878 -13 c 2
 654 -13 l 1
 654 -85 584 -141 494 -141 c 0
 404 -141 334 -85 334 -13 c 1
 110 -13 l 2
 97 -13 92 -8 92 2 c 0
 92 43 174 166 174 371 c 0
 174 627 317 755 494 755 c 0
494 691 m 0
 334 691 238 571 238 371 c 0
 238 297 228 233 215 179 c 1
 773 179 l 1
 760 233 750 297 750 371 c 0
 750 517 706 691 494 691 c 0
590 51 m 1
 654 51 l 1
 814 51 l 1
 807 69 799 91 791 115 c 1
 197 115 l 1
 189 91 181 69 174 51 c 1
 334 51 l 1
 398 51 l 1
 590 51 l 1
590 -13 m 1
 398 -13 l 1
 398 -48 441 -77 494 -77 c 0
 547 -77 590 -48 590 -13 c 1
EndSplineSet
Validated: 1
EndChar

StartChar: uF000D
Encoding: 983053 983053 12
Width: 1024
VWidth: 0
Flags: W
LayerCount: 2
Back
Fore
SplineSet
512 636 m 1
 429 450 l 1
 416 420 l 1
 384 414 l 1
 164 370 l 1
 316 218 l 1
 340 194 l 1
 333 161 l 1
 291 -56 l 1
 486 30 l 1
 512 42 l 1
 538 30 l 1
 733 -56 l 1
 691 161 l 1
 684 194 l 1
 708 218 l 1
 860 370 l 1
 640 414 l 1
 608 420 l 1
 594 450 l 1
 512 636 l 1
512 742 m 0
 526 742 538 734 544 721 c 2
 653 476 l 1
 926 422 l 2
 939 419 949 410 953 398 c 0
 954 395 955 391 955 388 c 0
 955 379 951 370 944 363 c 2
 754 173 l 1
 807 -99 l 2
 807 -102 808 -104 808 -106 c 0
 808 -116 804 -127 796 -134 c 0
 789 -138 782 -141 774 -141 c 0
 769 -141 764 -140 760 -138 c 2
 512 -28 l 1
 265 -138 l 2
 260 -140 255 -141 250 -141 c 0
 242 -141 234 -138 228 -133 c 0
 220 -127 216 -116 216 -106 c 0
 216 -104 217 -102 217 -99 c 2
 270 173 l 1
 80 363 l 2
 73 370 69 379 69 388 c 0
 69 391 70 395 71 398 c 0
 75 410 85 419 98 422 c 2
 371 476 l 1
 480 721 l 2
 486 734 498 742 512 742 c 0
EndSplineSet
Validated: 1
EndChar

StartChar: uF000F
Encoding: 983055 983055 13
Width: 1024
VWidth: 0
Flags: W
HStem: -77 64<137.411 326.589> 243 64<137.411 454.589> 563 64<137.411 838.589>
VStem: 712 64<83 497.589>
CounterMasks: 1 e0
LayerCount: 2
Back
Fore
SplineSet
626 198 m 1
 712 83 l 1
 712 467 l 2
 712 485 726 499 744 499 c 0
 762 499 776 485 776 467 c 2
 776 83 l 1
 862 198 l 1
 914 160 l 1
 744 -66 l 1
 574 160 l 1
 626 198 l 1
296 -13 m 2
 314 -13 328 -27 328 -45 c 0
 328 -63 314 -77 296 -77 c 2
 168 -77 l 2
 150 -77 136 -63 136 -45 c 0
 136 -27 150 -13 168 -13 c 2
 296 -13 l 2
424 307 m 2
 442 307 456 293 456 275 c 0
 456 257 442 243 424 243 c 2
 168 243 l 2
 150 243 136 257 136 275 c 0
 136 293 150 307 168 307 c 2
 424 307 l 2
808 627 m 2
 826 627 840 613 840 595 c 0
 840 577 826 563 808 563 c 2
 168 563 l 2
 150 563 136 577 136 595 c 0
 136 613 150 627 168 627 c 2
 808 627 l 2
EndSplineSet
Validated: 1
EndChar

StartChar: uF000E
Encoding: 983054 983054 14
Width: 1024
VWidth: 0
Flags: W
HStem: 51 64<160 481.318 566.585 864> 371 64<289.411 350.589 481.411 542.589 673.411 734.589> 627 64<160 864>
VStem: 96 64<115 627> 288 64<372.411 433.589> 480 64<372.411 433.589> 672 64<372.411 433.589> 864 64<115 627>
LayerCount: 2
Back
Fore
SplineSet
864 691 m 1
 899 691 928 662 928 627 c 2
 928 115 l 2
 928 80 899 51 864 51 c 2
 864 51 672 51 601 51 c 0
 564 51 545 -15 545 -15 c 1
 540 -33 533 -41 525 -41 c 0
 518 -41 511 -33 505 -17 c 1
 505 -17 480 51 453 51 c 0
 364 51 160 51 160 51 c 2
 125 51 96 80 96 115 c 2
 96 627 l 2
 96 662 125 691 160 691 c 2
 864 691 l 1
864 627 m 1
 160 627 l 1
 160 115 l 1
 453 115 l 2
 483 115 506 99 524 79 c 1
 544 100 569 115 601 115 c 2
 864 115 l 1
 864 627 l 1
736 403 m 4
 736 385 722 371 704 371 c 4
 686 371 672 385 672 403 c 4
 672 421 686 435 704 435 c 4
 722 435 736 421 736 403 c 4
544 403 m 4
 544 385 530 371 512 371 c 4
 494 371 480 385 480 403 c 4
 480 421 494 435 512 435 c 4
 530 435 544 421 544 403 c 4
352 403 m 4
 352 385 338 371 320 371 c 4
 302 371 288 385 288 403 c 4
 288 421 302 435 320 435 c 4
 338 435 352 421 352 403 c 4
EndSplineSet
Validated: 1
EndChar

StartChar: uF0010
Encoding: 983056 983056 15
Width: 1024
VWidth: 0
Flags: W
HStem: 627 64<279.135 744.865>
VStem: 384 64<99.9156 384.616> 576 64<-75.5894 395.996>
LayerCount: 2
Back
Fore
SplineSet
160 691 m 2
 864 691 l 2
 882 691 887 680 876 666 c 2
 660 396 l 2
 649 382 640 357 640 339 c 2
 640 -45 l 2
 640 -63 626 -77 608 -77 c 0
 590 -77 576 -63 576 -45 c 0
 576 83 576 211 576 339 c 0
 576 357 579 391 583 398 c 0
 587 405 599 422 610 436 c 2
 743 602 l 2
 754 616 748 627 731 627 c 2
 293 627 l 2
 276 627 270 616 281 602 c 2
 414 436 l 2
 425 422 444 393 446 385 c 0
 447 377 448 357 448 339 c 2
 448 115 l 2
 448 102 438 94 425 94 c 0
 407 94 384 110 384 148 c 2
 384 339 l 2
 384 357 375 382 364 396 c 2
 148 666 l 2
 137 680 142 691 160 691 c 2
EndSplineSet
Validated: 1
EndChar

StartChar: uF0011
Encoding: 983057 983057 16
Width: 1024
VWidth: 0
Flags: W
HStem: -77 64<396.402 627.598> 627 64<396.402 627.598>
VStem: 128 64<191.402 422.598> 480 64<256 563> 832 64<191.402 422.598>
CounterMasks: 1 38
LayerCount: 2
Back
Fore
SplineSet
512 627 m 0
 336 627 192 483 192 307 c 0
 192 131 336 -13 512 -13 c 0
 688 -13 832 131 832 307 c 0
 832 483 688 627 512 627 c 0
128 307 m 0
 128 519 300 691 512 691 c 0
 724 691 896 519 896 307 c 0
 896 95 724 -77 512 -77 c 0
 300 -77 128 95 128 307 c 0
544 563 m 1
 544 256 l 1
 663 138 l 1
 617 92 l 1
 480 230 l 1
 480 563 l 1
 544 563 l 1
EndSplineSet
Validated: 1
EndChar

StartChar: uF0012
Encoding: 983058 983058 17
Width: 1024
VWidth: 0
Flags: W
HStem: -136 65<361.432 668.998> 92 64<538.453 648.229> 289 64<649.945 688.824> 343 64<404.91 429.235>
VStem: 183 64<24.1584 305.351> 338 64<409.336 505.065> 775 64<22.7518 327.523>
LayerCount: 2
Back
Fore
SplineSet
670 289 m 0xee
 614 289 587 335 526 513 c 1
 491 388 467 343 413 343 c 0xde
 338 343 338 432 338 465 c 0
 338 477 336 492 333 509 c 1
 292 406 247 263 247 143 c 0
 247 33 268 -66 513 -71 c 1
 527 -72 l 1
 733 -72 775 10 775 143 c 0
 775 210 764 283 749 349 c 1
 733 322 709 289 670 289 c 0xee
511 744 m 0
 511 747 511 748 512 748 c 0
 524 748 630 353 670 353 c 0xee
 672 353 674 354 675 356 c 0
 729 416 730 525 730 580 c 0
 730 585 730 587 732 587 c 0
 748 587 839 342 839 143 c 0
 839 -5 786 -136 527 -136 c 0
 522 -136 516 -136 511 -136 c 0
 238 -131 183 -8 183 143 c 0
 183 361 313 638 347 684 c 1
 347 684 402 542 402 465 c 0
 402 424 406 407 413 407 c 0
 441 407 511 700 511 744 c 0
347 230 m 1
 410 230 482 126 495 117 c 1
 528 145 562 156 594 156 c 0
 635 156 672 137 698 111 c 1
 652 66 l 1
 636 82 615 92 592 92 c 0
 573 92 552 84 534 66 c 0
 524 56 513 52 501 52 c 0
 436 52 347 166 347 166 c 1
 347 230 l 1
EndSplineSet
Validated: 1
EndChar

StartChar: uF0013
Encoding: 983059 983059 18
Width: 1024
VWidth: 0
Flags: W
LayerCount: 2
Back
Fore
SplineSet
577 349 m 1
 488 403 l 1
 273 45 l 2
 271 41 268 31 268 26 c 2
 276 -50 l 1
 347 -22 l 2
 351 -20 360 -13 363 -9 c 2
 570 336 l 2
 573 339 575 345 577 349 c 1
577 348 m 1025
505 593 m 0
 505 599 507 604 510 609 c 2
 543 664 l 2
 549 674 559 680 570 680 c 0
 576 680 582 678 587 675 c 2
 751 576 l 2
 761 570 768 559 768 549 c 0
 768 542 763 535 761 531 c 2
 417 -42 l 2
 408 -57 387 -74 371 -81 c 2
 251 -129 l 2
 247 -130 244 -131 241 -131 c 0
 229 -131 219 -123 218 -109 c 2
 205 19 l 2
 205 21 204 24 204 26 c 0
 204 43 210 65 218 78 c 2
 449 463 l 2
 455 473 466 479 477 479 c 0
 483 479 488 477 493 474 c 2
 610 404 l 1
 691 538 l 1
 581 604 l 1
 564 576 l 2
 558 566 548 561 537 561 c 0
 518 561 505 577 505 593 c 0
EndSplineSet
Validated: 1
EndChar

StartChar: uF0015
Encoding: 983061 983061 19
Width: 1024
VWidth: 0
Flags: W
HStem: -35 64<455.573 691.453> 152 64<624.578 799.68>
VStem: 192 64<227.894 455.035> 378 64<390.151 574.265>
LayerCount: 2
Back
Fore
SplineSet
416 623 m 1
 326 573 256 460 256 341 c 0
 256 169 396 29 569 29 c 0
 729 29 811 116 850 193 c 1
 814 170 775 152 736 152 c 0
 635 152 538 194 469 267 c 0
 410 330 378 408 378 491 c 0
 378 499 379 506 379 513 c 0
 382 549 398 587 416 623 c 1
524 702 m 0
 524 669 447 571 443 508 c 0
 443 503 442 497 442 492 c 0
 442 338 579 216 736 216 c 0
 801 216 898 319 932 319 c 0
 940 319 945 313 945 299 c 0
 945 216 861 -35 569 -35 c 0
 361 -35 192 133 192 341 c 0
 192 535 344 713 512 713 c 0
 521 713 524 709 524 702 c 0
EndSplineSet
Validated: 1
EndChar

StartChar: uF0016
Encoding: 983062 983062 20
Width: 1024
VWidth: 0
Flags: W
HStem: 618 64<245.532 394.185 629.815 780.573>
VStem: 117 64<403.981 552.996> 843 64<405.267 555.049>
LayerCount: 2
Back
Fore
SplineSet
705 618 m 0
 664 618 624 600 598 568 c 0
 569 533 541 498 512 463 c 1
 483 498 455 533 426 568 c 0
 400 600 360 618 319 618 c 0
 238 618 181 550 181 478 c 0
 181 449 190 418 212 392 c 1
 520 32 l 1
 811 392 l 2
 833 418 843 449 843 479 c 0
 843 520 825 561 793 587 c 0
 768 608 737 618 705 618 c 0
705 682 m 0
 750 682 796 667 834 636 c 0
 882 596 907 538 907 480 c 0
 907 435 892 389 861 351 c 1
 521 -68 l 1
 163 351 l 1
 132 389 117 435 117 480 c 0
 117 538 142 596 190 636 c 0
 228 667 274 682 319 682 c 0
 377 682 435 657 475 609 c 2
 512 564 l 1
 549 609 l 2
 589 657 647 682 705 682 c 0
EndSplineSet
Validated: 1
EndChar

StartChar: uF0017
Encoding: 983063 983063 21
Width: 1024
VWidth: 0
Flags: W
HStem: -77 64<129.411 318.589> 243 64<129.411 446.589> 563 64<129.411 830.589>
VStem: 720 64<-75.5894 339>
CounterMasks: 1 e0
LayerCount: 2
Back
Fore
SplineSet
945 213 m 1025,0,-1
870 224 m 1,1,-1
 784 339 l 1,2,-1
 784 -45 l 2,3,-1
 784 -63 770 -77 752 -77 c 0,6,-1
 734 -77 720 -63 720 -45 c 2,9,-1
 720 339 l 1,10,-1
 634 224 l 1,11,-1
 582 262 l 1,12,-1
 752 488 l 1,13,-1
 922 262 l 1,14,-1
 870 224 l 1,1,-1
288 -13 m 2,15,-1
 306 -13 320 -27 320 -45 c 0,18,-1
 320 -63 306 -77 288 -77 c 2,21,-1
 160 -77 l 2,22,-1
 142 -77 128 -63 128 -45 c 0,25,-1
 128 -27 142 -13 160 -13 c 2,28,-1
 288 -13 l 2,15,-1
416 307 m 2,29,-1
 434 307 448 293 448 275 c 0,32,-1
 448 257 434 243 416 243 c 2,35,-1
 160 243 l 2,36,-1
 142 243 128 257 128 275 c 0,39,-1
 128 293 142 307 160 307 c 2,42,-1
 416 307 l 2,29,-1
800 627 m 2,43,-1
 818 627 832 613 832 595 c 0,46,-1
 832 577 818 563 800 563 c 2,49,-1
 160 563 l 2,50,-1
 142 563 128 577 128 595 c 0,53,-1
 128 613 142 627 160 627 c 2,56,-1
 800 627 l 2,43,-1
EndSplineSet
Validated: 1
EndChar

StartChar: uF0041
Encoding: 983105 983105 22
Width: 1024
VWidth: 0
Flags: W
HStem: -10 43<590.905 786> 154 45<212.229 407.303> 255 43<591.469 769> 492 45<589.987 771>
VStem: 549 40<35.6094 252.391 301.609 491.531> 871 57<335.045 461.022> 903 57<78.4197 211.284>
LayerCount: 2
Back
Fore
SplineSet
526 -16 m 0xf8
 510 -16 491 -2 485 14 c 2
 443 124 l 2
 437 140 417 154 400 154 c 2
 219 154 l 2
 201 154 182 140 175 124 c 2
 134 14 l 2
 128 -2 110 -16 94 -16 c 0
 82 -16 74 -7 74 4 c 0
 74 7 75 10 76 14 c 2
 265 501 l 2
 272 518 291 531 309 531 c 2
 311 531 l 2
 329 531 348 518 354 501 c 2
 544 14 l 2
 545 10 546 7 546 4 c 0
 546 -7 538 -16 526 -16 c 0xf8
309 486 m 1
 309 485 214 229 214 229 c 2
 213 225 212 222 212 219 c 0
 212 207 221 199 235 199 c 2
 385 199 l 2
 399 199 408 207 408 219 c 0
 408 222 407 226 406 229 c 0
 406 229 310 485 309 486 c 1
960 144 m 0xfa
 960 116 954 93 944 73 c 0
 933 53 919 37 900 25 c 0
 882 13 861 4 837 -2 c 0
 814 -7 788 -10 762 -10 c 2
 581 -10 l 2
 564 -10 549 4 549 22 c 2
 549 505 l 2
 549 523 564 537 581 537 c 2
 707 537 l 2
 725 537 754 536 771 536 c 2
 771 536 796 535 819 530 c 0
 842 524 862 517 878 506 c 0
 894 495 906 482 915 465 c 0
 924 448 928 428 928 405 c 0xfc
 928 390 926 375 921 361 c 0
 917 348 911 335 902 324 c 0
 894 313 883 304 870 296 c 0
 856 288 841 282 824 278 c 1
 846 276 865 271 882 263 c 0
 899 255 913 245 925 234 c 0
 936 222 945 208 951 193 c 0
 957 178 960 162 960 144 c 0xfa
871 400 m 0
 871 432 860 456 837 470 c 0
 815 485 782 492 737 492 c 2
 621 494 l 2
 603 494 589 480 589 462 c 2
 589 331 l 2
 589 314 603 299 621 299 c 2
 706 298 l 2
 711 298 717 298 723 298 c 0
 739 298 757 298 769 299 c 2
 769 299 781 300 798 305 c 0
 815 310 828 317 839 326 c 0
 850 335 858 345 863 358 c 0
 868 370 871 384 871 400 c 0
903 148 m 0xfa
 903 166 899 181 892 195 c 0
 884 209 874 220 860 229 c 0
 847 237 831 244 812 248 c 0
 793 253 772 255 749 255 c 2
 621 255 l 2
 603 255 589 240 589 223 c 2
 589 65 l 2
 589 48 603 33 621 33 c 2
 722 33 l 2
 739 33 768 34 786 35 c 2
 786 35 794 35 812 39 c 0
 830 43 846 50 859 59 c 0
 873 68 883 79 891 94 c 0
 899 108 903 126 903 148 c 0xfa
EndSplineSet
Validated: 1
EndChar

StartChar: uF0042
Encoding: 983106 983106 23
Width: 1024
VWidth: 0
Flags: W
VStem: 181 64<38 580>
LayerCount: 2
Back
Fore
SplineSet
245 580 m 1
 245 38 l 1
 715 309 l 1
 245 580 l 1
212 666 m 0
 219 666 228 664 237 659 c 2
 787 341 l 2
 803 332 810 321 810 309 c 0
 810 297 803 286 787 277 c 2
 237 -41 l 2
 228 -46 219 -48 212 -48 c 0
 194 -48 181 -34 181 -9 c 2
 181 627 l 2
 181 652 194 666 212 666 c 0
442 432 m 1
 584 333 l 1
 547 281 l 1
 406 380 l 1
 442 432 l 1
EndSplineSet
Validated: 1
EndChar

StartChar: uF0050
Encoding: 983120 983120 24
Width: 1024
VWidth: 0
Flags: W
VStem: 192 64<-30 606>
CounterMasks: 1 e0
LayerCount: 2
Back
Fore
SplineSet
256 606 m 1
 256 -30 l 1
 807 288 l 1
 256 606 l 1
223 692 m 0
 230 692 239 690 247 685 c 2
 879 320 l 2
 895 311 902 300 902 288 c 0
 902 276 895 264 879 256 c 2
 247 -109 l 2
 239 -114 230 -116 223 -116 c 0
 205 -116 192 -102 192 -77 c 2
 192 653 l 2
 192 678 205 692 223 692 c 0
398 464 m 1
 603 361 l 1
 575 304 l 1
 370 406 l 1
 398 464 l 1
EndSplineSet
Validated: 1
EndChar

StartChar: uF0051
Encoding: 983121 983121 25
Width: 1024
VWidth: 0
Flags: W
VStem: 256 64<-11.5894 625.589> 704 64<-11.5894 625.589>
LayerCount: 2
Back
Fore
SplineSet
288 627 m 0
 306 627 320 613 320 595 c 2
 320 19 l 2
 320 1 306 -13 288 -13 c 0
 270 -13 256 1 256 19 c 2
 256 595 l 2
 256 613 270 627 288 627 c 0
736 627 m 0
 754 627 768 613 768 595 c 2
 768 19 l 2
 768 1 754 -13 736 -13 c 0
 718 -13 704 1 704 19 c 2
 704 595 l 2
 704 613 718 627 736 627 c 0
EndSplineSet
Validated: 1
EndChar

StartChar: uF0052
Encoding: 983122 983122 26
Width: 1024
VWidth: 0
Flags: W
HStem: 269 64<161.411 480 544 862.589>
VStem: 480 64<-46.5894 269 333 654.589>
LayerCount: 2
Back
Fore
SplineSet
832 333 m 2
 850 333 864 319 864 301 c 0
 864 283 850 269 832 269 c 2
 544 269 l 1
 544 -16 l 2
 544 -34 530 -48 512 -48 c 0
 494 -48 480 -34 480 -16 c 2
 480 269 l 1
 192 269 l 2
 174 269 160 283 160 301 c 0
 160 319 174 333 192 333 c 2
 480 333 l 1
 480 624 l 2
 480 642 494 656 512 656 c 0
 530 656 544 642 544 624 c 2
 544 333 l 1
 832 333 l 2
EndSplineSet
Validated: 1
EndChar

StartChar: uF0070
Encoding: 983152 983152 27
Width: 1024
VWidth: 0
Flags: W
HStem: -51 51<102.308 921.692> 256 51<102.308 921.692> 563 51<102.308 921.692>
LayerCount: 2
Back
Fore
SplineSet
896 614 m 2
 910 614 922 603 922 589 c 0
 922 575 910 563 896 563 c 2
 128 563 l 2
 114 563 102 575 102 589 c 0
 102 603 114 614 128 614 c 2
 896 614 l 2
896 307 m 2
 910 307 922 295 922 281 c 0
 922 267 910 256 896 256 c 2
 128 256 l 2
 114 256 102 267 102 281 c 0
 102 295 114 307 128 307 c 2
 896 307 l 2
896 -0 m 2
 910 0 922 -12 922 -26 c 0
 922 -40 910 -51 896 -51 c 2
 128 -51 l 2
 114 -51 102 -40 102 -26 c 0
 102 -12 114 0 128 -0 c 2
 896 -0 l 2
EndSplineSet
Validated: 1
EndChar

StartChar: uF0071
Encoding: 983153 983153 28
Width: 1024
VWidth: 0
Flags: W
VStem: 338 80<274.867 339.133>
LayerCount: 2
Back
Fore
SplineSet
751 674 m 2
 425 326 l 2
 421 320 418 314 418 307 c 0
 418 300 421 294 425 288 c 2
 750 -60 l 2
 755 -65 757 -72 757 -78 c 0
 757 -85 755 -91 749 -96 c 2
 744 -101 l 2
 739 -106 733 -108 727 -108 c 0
 720 -108 713 -105 708 -100 c 2
 385 246 l 2
 376 256 360 273 351 283 c 2
 346 288 l 2
 341 294 338 300 338 307 c 0
 338 314 341 320 346 326 c 2
 351 331 l 2
 360 341 376 358 386 368 c 2
 708 714 l 2
 713 719 720 722 727 722 c 0
 733 722 739 720 744 715 c 2
 749 710 l 2
 755 705 758 698 758 691 c 0
 758 685 755 679 751 674 c 2
EndSplineSet
Validated: 1
EndChar

StartChar: uF0072
Encoding: 983154 983154 29
Width: 1024
VWidth: 0
Flags: W
HStem: -103 52<231.205 792.795> 614 103<461 563> 614 51<128.308 179 230 461 563 794 845 895.692>
VStem: 179 51<-50.4926 614> 384 51<51.3082 562.692> 461 102<665 717> 589 51<51.3082 562.692> 794 51<-50.4926 614>
LayerCount: 2
Back
Fore
SplineSet
640 77 m 2x9f
 640 63 628 51 614 51 c 0
 600 51 589 63 589 77 c 2
 589 537 l 2
 589 551 600 563 614 563 c 0
 628 563 640 551 640 537 c 2
 640 77 l 2x9f
435 77 m 2
 435 63 424 51 410 51 c 0
 396 51 384 63 384 77 c 2
 384 537 l 2
 384 551 396 563 410 563 c 0
 424 563 435 551 435 537 c 2
 435 77 l 2
896 640 m 0
 896 626 884 614 870 614 c 2
 845 614 l 1
 845 614 845 154 845 -0 c 0
 845 -102 793 -103 742 -103 c 2
 333 -103 l 1
 333 -103 333 -103 282 -103 c 0
 231 -103 179 -102 179 -0 c 0
 179 154 179 614 179 614 c 1
 154 614 l 2
 140 614 128 626 128 640 c 0
 128 654 140 665 154 665 c 2
 461 665 l 1xbf
 461 701 l 2
 461 709 468 717 476 717 c 2
 497 717 l 2
 505 717 519 717 527 717 c 2
 548 717 l 2xdf
 556 717 563 709 563 701 c 2
 563 665 l 1
 870 665 l 2xbf
 884 665 896 654 896 640 c 0
230 614 m 1
 230 -51 l 1
 794 -51 l 1
 794 614 l 1xbf
 548 614 l 1
 527 614 l 1
 497 614 l 1
 476 614 l 1xdf
 230 614 l 1
EndSplineSet
Validated: 1
EndChar

StartChar: uF0080
Encoding: 983168 983168 30
Width: 1024
VWidth: 0
Flags: W
HStem: -51 51<154 870> 307 51<307.908 357.605> 409 52<307.823 357.683> 563 51<154 870>
VStem: 102 52<0 563> 256 51<358.908 408.605> 358 52<358.823 408.683> 870 52<0 563>
LayerCount: 2
Back
Fore
SplineSet
870 563 m 1
 154 563 l 1
 154 -0 l 1
 870 -0 l 1
 870 563 l 1
154 614 m 2
 870 614 l 2
 898 614 922 591 922 563 c 2
 922 -0 l 2
 922 -28 898 -51 870 -51 c 2
 154 -51 l 2
 126 -51 102 -28 102 -0 c 2
 102 563 l 2
 102 591 126 614 154 614 c 2
333 409 m 0
 319 409 307 398 307 384 c 0
 307 370 319 358 333 358 c 0
 347 358 358 370 358 384 c 0
 358 398 347 409 333 409 c 0
256 384 m 0
 256 426 291 461 333 461 c 0
 375 461 410 426 410 384 c 0
 410 342 375 307 333 307 c 0
 291 307 256 342 256 384 c 0
187 69 m 1
 362 245 l 1
 465 91 l 1
 717 343 l 1
 837 223 l 1
 801 186 l 1
 717 271 l 1
 457 11 l 1
 354 164 l 1
 223 33 l 1
 187 69 l 1
EndSplineSet
Validated: 1
EndChar

StartChar: uF0081
Encoding: 983169 983169 31
Width: 1024
VWidth: 0
Flags: W
HStem: 281 46<128.009 489 535 895.991>
VStem: 489 46<-79.9912 281 327 687.991>
LayerCount: 2
Back
Fore
SplineSet
870 281 m 2
 535 281 l 1
 535 -54 l 2
 535 -68 524 -80 512 -80 c 0
 500 -80 489 -68 489 -54 c 2
 489 281 l 1
 154 281 l 2
 140 281 128 292 128 304 c 0
 128 316 140 327 154 327 c 2
 489 327 l 1
 489 662 l 2
 489 676 500 688 512 688 c 0
 524 688 535 676 535 662 c 2
 535 327 l 1
 870 327 l 2
 884 327 896 316 896 304 c 0
 896 292 884 281 870 281 c 2
EndSplineSet
Validated: 1
EndChar

StartChar: uF0082
Encoding: 983170 983170 32
Width: 1024
VWidth: 0
Flags: W
HStem: -154 52<744.893 877.375> -45 51<187.021 350.356> 118 51<745.507 877.375> 337 51<187.021 350.279> 443 51<565.168 677.507> 660 51<566.179 677.507>
VStem: 51 51<91.0211 252.783> 434 51<132.152 254.131> 487 51<520.923 632.507> 650 51<-58.1942 48.679> 705 51<521.493 632.507> 922 51<-56.3905 74.1071>
LayerCount: 2
Back
Fore
SplineSet
811 118 m 0
 750 118 701 69 701 8 c 0
 701 -53 750 -102 811 -102 c 0
 872 -102 922 -53 922 8 c 0
 922 69 872 118 811 118 c 0
622 711 m 0
 696 711 756 651 756 577 c 0
 756 503 696 443 622 443 c 0
 594 443 567 452 545 467 c 1
 412 334 l 1
 457 294 485 236 485 172 c 0
 485 159 484 145 482 133 c 1
 675 95 l 1
 704 140 754 169 811 169 c 0
 900 169 973 97 973 8 c 0
 973 -81 900 -154 811 -154 c 0
 722 -154 650 -81 650 8 c 0
 650 21 651 35 654 47 c 1
 467 84 l 1
 433 8 357 -45 268 -45 c 0
 148 -45 51 52 51 172 c 0
 51 292 148 388 268 388 c 0
 305 388 339 379 369 363 c 1
 509 503 l 1
 495 524 487 550 487 577 c 0
 487 651 548 711 622 711 c 0
622 660 m 0
 576 660 538 623 538 577 c 0
 538 531 576 494 622 494 c 0
 668 494 705 531 705 577 c 0
 705 623 668 660 622 660 c 0
268 337 m 0
 177 337 102 263 102 172 c 0
 102 81 177 6 268 6 c 0
 359 6 434 81 434 172 c 0
 434 263 359 337 268 337 c 0
EndSplineSet
Validated: 1
EndChar

StartChar: uF0084
Encoding: 983172 983172 33
Width: 1024
VWidth: 0
Flags: W
HStem: -0 51<154 451.477 545.207 870> 307 51<256.308 306.717 461.283 511.692 666.283 716.692> 614 51<154 870>
VStem: 102 52<51 614> 256 51<307.308 357.717> 461 51<307.308 357.717> 666 51<307.308 357.717> 870 52<51 614>
LayerCount: 2
Back
Fore
SplineSet
282 358 m 0
 296 358 307 347 307 333 c 0
 307 319 296 307 282 307 c 0
 268 307 256 319 256 333 c 0
 256 347 268 358 282 358 c 0
486 358 m 0
 500 358 512 347 512 333 c 0
 512 319 500 307 486 307 c 0
 472 307 461 319 461 333 c 0
 461 347 472 358 486 358 c 0
691 358 m 0
 705 358 717 347 717 333 c 0
 717 319 705 307 691 307 c 0
 677 307 666 319 666 333 c 0
 666 347 677 358 691 358 c 0
498 -0 m 1
 515 29 548 51 583 51 c 2
 870 51 l 1
 870 614 l 1
 154 614 l 1
 154 51 l 1
 414 51 l 2
 449 51 481 29 498 -0 c 1
896 665 m 2
 910 665 922 654 922 640 c 2
 922 25 l 2
 922 11 910 0 896 -0 c 2
 583 -0 l 2
 569 0 552 -10 545 -22 c 2
 511 -80 l 2
 507 -86 503 -90 498 -90 c 0
 493 -90 489 -86 485 -80 c 2
 452 -22 l 2
 445 -10 428 0 414 -0 c 2
 128 -0 l 2
 114 0 102 11 102 25 c 2
 102 640 l 2
 102 654 114 665 128 665 c 2
 896 665 l 2
EndSplineSet
Validated: 1
EndChar

StartChar: uF0085
Encoding: 983173 983173 34
Width: 1024
VWidth: 0
Flags: W
HStem: -99 51<388.119 631.943> 108 51<385.031 494.125> 132 55<670.184 710.963> 506 52<436.932 548.639> 665 52<388.119 631.943>
VStem: 102 52<187.057 430.881> 295 51<199.578 394.289> 585 66<270.973 462.834> 867 51<187.057 430.881>
LayerCount: 2
Back
Fore
SplineSet
682 496 m 1xdf80
 660 449 651 384 651 326 c 0
 651 251 667 187 695 187 c 0
 698 187 702 187 705 189 c 1
 728 143 l 1
 712 135 698 132 685 132 c 0xbf80
 639 132 616 182 608 246 c 1
 570 163 502 108 435 108 c 0
 423 108 411 110 400 113 c 0
 334 133 295 206 295 292 c 0
 295 320 299 350 308 380 c 0
 340 485 420 558 497 558 c 0
 509 558 521 556 532 553 c 0
 573 541 603 508 620 464 c 1
 625 487 631 505 636 517 c 1
 682 496 l 1xdf80
497 506 m 0
 441 506 381 445 357 365 c 0
 349 340 346 316 346 292 c 0
 346 228 371 175 414 162 c 0
 420 160 428 159 435 159 c 0xdf80
 491 159 550 220 574 300 c 0
 581 325 585 350 585 374 c 0
 585 397 582 419 575 438 c 0
 568 458 552 494 517 504 c 0
 510 506 504 506 497 506 c 0
510 717 m 0
 735 717 918 534 918 309 c 0
 918 84 735 -99 510 -99 c 0
 285 -99 102 84 102 309 c 0
 102 534 285 717 510 717 c 0
510 665 m 0
 313 665 154 506 154 309 c 0
 154 112 313 -48 510 -48 c 0
 707 -48 867 112 867 309 c 0
 867 506 707 665 510 665 c 0
EndSplineSet
Validated: 1
EndChar

StartChar: uF0045
Encoding: 983109 983109 35
Width: 1024
VWidth: 0
Flags: W
LayerCount: 2
Back
Fore
SplineSet
756 268 m 1
 697 219 l 2
 679 205 611 149 591 132 c 2
 532 83 l 1
 806 -19 l 1
 756 268 l 1
505 727 m 1
 514 727 523 723 530 716 c 2
 780 412 l 2
 791 399 803 373 806 356 c 2
 882 -87 l 2
 884 -100 878 -109 867 -109 c 0
 864 -109 861 -108 858 -107 c 2
 435 51 l 2
 419 57 396 73 385 86 c 2
 135 390 l 2
 130 396 128 403 128 410 c 0
 128 419 132 429 139 435 c 2
 145 440 152 442 159 442 c 0
 169 442 178 438 184 431 c 2
 434 127 l 2
 441 120 450 116 459 116 c 0
 466 116 474 118 480 123 c 2
 550 181 l 2
 558 187 562 197 562 206 c 0
 562 213 559 220 554 226 c 2
 304 529 l 2
 299 535 297 543 297 550 c 0
 297 559 301 568 308 574 c 2
 315 580 l 2
 321 585 329 588 336 588 c 0
 345 588 354 584 360 576 c 2
 611 273 l 2
 617 265 626 261 635 261 c 0
 643 261 650 263 656 268 c 2
 726 327 l 2
 734 333 738 342 738 351 c 0
 738 358 735 366 730 372 c 2
 480 675 l 2
 475 681 473 688 473 695 c 0
 473 704 477 714 485 720 c 2
 491 725 498 727 505 727 c 1
EndSplineSet
Validated: 1
EndChar

StartChar: uF0075
Encoding: 983157 983157 36
Width: 1024
VWidth: 0
Flags: W
HStem: -0 51<347.31 574.636> 665 52<347.31 574.636>
VStem: 102 52<244.364 471.69> 768 51<244.364 471.69>
LayerCount: 2
Back
Fore
SplineSet
735 120 m 1
 940 -84 l 1
 903 -121 l 1
 699 84 l 1
 735 120 l 1
461 717 m 0
 659 717 819 556 819 358 c 0
 819 160 659 0 461 -0 c 0
 263 0 102 160 102 358 c 0
 102 556 263 717 461 717 c 0
461 665 m 0
 292 665 154 527 154 358 c 0
 154 189 292 51 461 51 c 0
 630 51 768 189 768 358 c 0
 768 527 630 665 461 665 c 0
EndSplineSet
Validated: 1
EndChar

StartChar: uF0078
Encoding: 983160 983160 37
Width: 1024
VWidth: 0
Flags: W
HStem: -0 51<154 479.037 572.963 870> 256 51<256.308 511.692> 409 52<256.308 665.692> 614 51<154 870>
VStem: 102 52<51 614> 870 52<51 614>
LayerCount: 2
Back
Fore
SplineSet
256 409 m 1025,0,-1
512 256 m 1025,1,-1
256 256 m 1025,2,-1
614 205 m 1025,3,-1
282 461 m 2,4,-1
 640 461 l 2,5,-1
 654 461 666 449 666 435 c 0,8,-1
 666 421 654 409 640 409 c 2,11,-1
 282 409 l 2,12,-1
 268 409 256 421 256 435 c 0,15,-1
 256 449 268 461 282 461 c 2,4,-1
282 307 m 2,18,-1
 486 307 l 2,19,-1
 500 307 512 295 512 281 c 0,22,-1
 512 267 500 256 486 256 c 2,25,-1
 282 256 l 2,26,-1
 268 256 256 267 256 281 c 0,29,-1
 256 295 268 307 282 307 c 2,18,-1
788 394 m 1,32,-1
 635 189 l 1,33,-1
 594 220 l 1,34,-1
 748 425 l 1,35,-1
 788 394 l 1,32,-1
526 0 m 1,36,-1
 543 29 576 51 610 51 c 2,39,-1
 870 51 l 1,40,-1
 870 614 l 1,41,-1
 154 614 l 1,42,-1
 154 51 l 1,43,-1
 442 51 l 2,44,-1
 476 51 509 29 526 0 c 1,36,-1
128 665 m 2,47,-1
 896 665 l 2,48,-1
 910 665 922 654 922 640 c 2,51,-1
 922 25 l 2,52,-1
 922 11 910 0 896 -0 c 2,55,-1
 610 -0 l 2,56,-1
 596 0 579 -10 572 -22 c 2,59,-1
 539 -80 l 2,60,-1
 535 -86 531 -89 526 -89 c 0,63,-1
 521 -89 517 -86 513 -80 c 2,66,-1
 480 -22 l 2,67,-1
 473 -10 456 0 442 -0 c 2,70,-1
 128 -0 l 2,71,-1
 114 0 102 11 102 25 c 2,74,-1
 102 640 l 2,75,-1
 102 654 114 665 128 665 c 2,47,-1
EndSplineSet
Validated: 1
EndChar

StartChar: uF007E
Encoding: 983166 983166 38
Width: 1024
VWidth: 0
Flags: W
HStem: 6 52<435.097 454> 48 51<506.125 621.338>
VStem: 202 84<390 423.5> 280 84<456.5 489.5> 358 84<522.5 555.5> 436 84<588.5 621.5> 727 51<161.849 268.395>
LayerCount: 2
Back
Fore
SplineSet
461 651 m 0x06
 468 651 476 647 481 641 c 2
 514 602 l 2
 518 597 520 591 520 586 c 0x06
 520 573 509 560 495 560 c 0
 488 560 480 563 475 569 c 2
 442 608 l 2x0a
 438 613 436 619 436 624 c 0
 436 637 447 651 461 651 c 0x06
383 584 m 0
 390 584 398 581 403 575 c 2
 436 536 l 2x06
 440 531 442 525 442 520 c 0x0a
 442 507 431 494 417 494 c 0
 410 494 402 497 397 503 c 2
 364 542 l 2x12
 360 547 358 553 358 558 c 0x0a
 358 571 369 584 383 584 c 0
305 518 m 0
 312 518 320 515 325 509 c 2
 358 470 l 2x0a
 362 465 364 459 364 454 c 0x12
 364 441 353 428 339 428 c 0
 332 428 324 431 319 437 c 2
 286 476 l 2x22
 282 481 280 487 280 492 c 0x12
 280 505 291 518 305 518 c 0
227 452 m 0
 234 452 242 449 247 443 c 2
 280 404 l 2x12
 284 399 286 393 286 388 c 0
 286 375 275 361 261 361 c 0
 254 361 246 364 241 370 c 2
 208 410 l 2
 204 415 202 420 202 425 c 0x22
 202 438 213 452 227 452 c 0
503 745 m 0
 518 745 532 739 542 727 c 2
 675 571 l 2
 681 564 684 556 686 547 c 1
 694 544 702 539 708 532 c 2
 825 394 l 2
 835 382 840 366 840 350 c 0
 840 337 837 323 830 312 c 2
 789 252 l 2
 782 241 778 228 778 215 c 0
 778 199 783 182 793 170 c 2
 911 32 l 2
 919 22 923 11 923 -1 c 0
 923 -16 917 -30 905 -40 c 2
 811 -119 l 2
 801 -127 790 -131 778 -131 c 0
 763 -131 749 -125 739 -113 c 2
 622 25 l 2
 610 40 588 48 568 48 c 0x42
 559 48 550 46 542 42 c 2
 476 12 l 2
 468 8 458 6 449 6 c 0x82
 429 6 408 14 396 29 c 2
 279 168 l 2
 273 175 270 183 268 192 c 1
 260 195 252 200 246 207 c 2
 113 363 l 2
 105 373 101 384 101 396 c 0
 101 411 107 425 119 435 c 2
 470 733 l 2
 480 741 491 745 503 745 c 0
503 694 m 1
 152 396 l 1
 285 240 l 1
 636 538 l 1
 503 694 l 1
669 499 m 1
 318 201 l 1
 435 63 l 2
 437 61 443 58 450 58 c 2
 454 58 l 1x82
 521 89 l 2
 535 96 551 99 568 99 c 0x42
 604 99 639 84 661 58 c 2x82
 778 -80 l 1
 872 -1 l 1
 755 137 l 2
 737 158 727 187 727 215 c 0
 727 238 734 262 747 281 c 2
 788 341 l 2
 791 345 789 357 786 361 c 2
 669 499 l 1
EndSplineSet
Validated: 1
EndChar

StartChar: uF0008
Encoding: 983048 983048 39
Width: 1024
VWidth: 0
Flags: W
HStem: 93 64<442.573 595.427> 275 64<33.4106 142.811 893.321 990.589> 443 64<442.573 595.427>
VStem: 312 64<223.573 376.427> 480 64<-171.589 -74.3207 676.189 785.589> 662 64<223.573 376.427>
LayerCount: 2
Back
Fore
SplineSet
960 275 m 2
 896 275 l 2
 895 275 l 0
 890 192 857 117 807 57 c 1
 851 13 l 2
 858 6 861 -2 861 -9 c 0
 861 -26 846 -42 829 -42 c 0
 821 -42 812 -38 806 -32 c 2
 762 12 l 1
 702 -38 627 -71 544 -76 c 0
 544 -77 l 2
 544 -141 l 2
 544 -159 530 -173 512 -173 c 0
 494 -173 480 -159 480 -141 c 2
 480 -77 l 2
 480 -76 480 -76 480 -75 c 0
 399 -67 326 -33 268 19 c 1
 267 17 265 15 263 13 c 2
 218 -32 l 2
 212 -38 203 -42 195 -42 c 0
 187 -42 179 -38 173 -32 c 0
 167 -26 163 -18 163 -10 c 0
 163 -2 167 7 173 13 c 2
 218 58 l 2
 220 60 222 63 225 64 c 1
 177 123 148 197 143 278 c 1
 139 276 133 275 128 275 c 2
 64 275 l 2
 46 275 32 289 32 307 c 0
 32 325 46 339 64 339 c 2
 128 339 l 2
 134 339 139 338 144 335 c 1
 151 416 184 489 234 547 c 1
 228 548 223 551 218 556 c 2
 173 601 l 2
 167 607 163 616 163 624 c 0
 163 632 167 640 173 646 c 0
 179 652 187 656 195 656 c 0
 203 656 212 652 218 646 c 2
 263 601 l 2
 268 596 271 590 272 584 c 1
 330 634 403 668 484 675 c 1
 481 680 480 685 480 691 c 2
 480 755 l 2
 480 773 494 787 512 787 c 0
 530 787 544 773 544 755 c 2
 544 691 l 2
 544 686 542 680 540 676 c 1
 621 671 696 642 755 594 c 1
 756 597 759 599 761 601 c 2
 806 646 l 2
 812 652 821 656 829 656 c 0
 837 656 845 652 851 646 c 0
 857 640 861 632 861 624 c 0
 861 616 857 607 851 601 c 2
 806 556 l 2
 804 554 802 552 800 551 c 1
 852 493 886 420 894 339 c 0
 895 339 895 339 896 339 c 2
 960 339 l 2
 978 339 992 325 992 307 c 0
 992 289 978 275 960 275 c 2
519 613 m 0
 346 613 206 473 206 300 c 0
 206 127 346 -13 519 -13 c 0
 692 -13 832 127 832 300 c 0
 832 473 692 613 519 613 c 0
519 507 m 0
 633 507 726 414 726 300 c 0
 726 186 633 93 519 93 c 0
 405 93 312 186 312 300 c 0
 312 414 405 507 519 507 c 0
519 443 m 0
 440 443 376 379 376 300 c 0
 376 221 440 157 519 157 c 0
 598 157 662 221 662 300 c 0
 662 379 598 443 519 443 c 0
EndSplineSet
Validated: 1
EndChar

StartChar: uF0014
Encoding: 983060 983060 40
Width: 1024
VWidth: 0
Flags: W
HStem: -109 128<481.411 542.589> 3 110<251.047 274.953 749.047 772.953> 51 64<424.371 599.629> 275 64<97.4106 222.589 801.411 926.589> 499 64<424.371 599.629> 501 110<251.047 274.953 749.047 772.953> 595 128<481.411 542.589>
VStem: 96 128<276.411 337.589> 208 110<46.0469 69.9531 544.047 567.953> 256 64<219.371 394.629> 480 64<-107.589 17.5894 596.411 721.589> 704 64<219.371 394.629> 706 110<46.0469 69.9531 544.047 567.953> 800 128<276.411 337.589>
LayerCount: 2
Back
Fore
SplineSet
512 499 m 0x3870
 406 499 320 413 320 307 c 0
 320 201 406 115 512 115 c 0
 618 115 704 201 704 307 c 0
 704 413 618 499 512 499 c 0x3870
512 563 m 0
 653 563 768 448 768 307 c 0
 768 166 653 51 512 51 c 0
 371 51 256 166 256 307 c 0
 256 448 371 563 512 563 c 0
512 595 m 0x1220
 494 595 480 609 480 627 c 2
 480 691 l 2
 480 709 494 723 512 723 c 0
 530 723 544 709 544 691 c 2
 544 627 l 2
 544 609 530 595 512 595 c 0x1220
286 501 m 0x14a0
 278 501 269 505 263 511 c 2
 218 556 l 2
 212 562 208 571 208 579 c 0
 208 587 212 595 218 601 c 0
 224 607 232 611 240 611 c 0
 248 611 257 607 263 601 c 2
 308 556 l 2
 315 549 318 541 318 534 c 0
 318 517 303 501 286 501 c 0x14a0
192 275 m 2
 128 275 l 2
 110 275 96 289 96 307 c 0
 96 325 110 339 128 339 c 2
 192 339 l 2
 210 339 224 325 224 307 c 0x1120
 224 289 210 275 192 275 c 2
240 3 m 0x50a0
 232 3 224 7 218 13 c 0
 212 19 208 27 208 35 c 0
 208 43 212 52 218 58 c 2
 263 103 l 2
 269 109 278 113 286 113 c 0
 294 113 302 109 308 103 c 0
 314 97 318 89 318 81 c 0
 318 73 314 64 308 58 c 2
 263 13 l 2
 257 7 248 3 240 3 c 0x50a0
512 -109 m 0x9020
 494 -109 480 -95 480 -77 c 2
 480 -13 l 2
 480 5 494 19 512 19 c 0
 530 19 544 5 544 -13 c 2
 544 -77 l 2
 544 -95 530 -109 512 -109 c 0x9020
784 3 m 0x5028
 776 3 767 7 761 13 c 2
 716 58 l 2
 710 64 706 73 706 81 c 0
 706 89 710 97 716 103 c 0
 722 109 730 113 738 113 c 0
 746 113 755 109 761 103 c 2
 806 58 l 2
 813 51 816 44 816 37 c 0
 816 20 801 3 784 3 c 0x5028
896 275 m 2
 832 275 l 2
 814 275 800 289 800 307 c 0
 800 325 814 339 832 339 c 2
 896 339 l 2
 914 339 928 325 928 307 c 0x1024
 928 289 914 275 896 275 c 2
738 501 m 0x1428
 730 501 722 505 716 511 c 0
 710 517 706 525 706 533 c 0
 706 541 710 550 716 556 c 2
 761 601 l 2
 767 607 776 611 784 611 c 0
 792 611 800 607 806 601 c 0
 812 595 816 587 816 579 c 0
 816 571 812 562 806 556 c 2
 761 511 l 2
 755 505 746 501 738 501 c 0x1428
EndSplineSet
Validated: 1
EndChar

StartChar: uF0043
Encoding: 983107 983107 41
Width: 1024
VWidth: 0
Flags: W
HStem: -141 64<193.411 480 544 830.589> 51 64<337.351 480 544 686.649> 243 64<385.411 638.589> 435 64<385.411 638.589> 627 64<337.351 686.649> 723 64<696 758.938>
VStem: 256 64<132.351 609.649> 480 64<-77 51> 704 64<132.351 609.649> 801 62<650.266 681.068>
LayerCount: 2
Back
Fore
SplineSet
640 275 m 0
 640 257 626 243 608 243 c 2
 416 243 l 2
 398 243 384 257 384 275 c 0
 384 293 398 307 416 307 c 2
 608 307 l 2
 626 307 640 293 640 275 c 0
640 467 m 0
 640 449 626 435 608 435 c 2
 416 435 l 2
 398 435 384 449 384 467 c 0
 384 485 398 499 416 499 c 2
 608 499 l 2
 626 499 640 485 640 467 c 0
640 691 m 2
 710 691 768 633 768 563 c 2
 768 179 l 2
 768 109 710 51 640 51 c 2
 544 51 l 1
 544 -77 l 1
 800 -77 l 2
 818 -77 832 -91 832 -109 c 0
 832 -127 818 -141 800 -141 c 2
 224 -141 l 2
 206 -141 192 -127 192 -109 c 0
 192 -91 206 -77 224 -77 c 2
 480 -77 l 1
 480 51 l 1
 384 51 l 2
 314 51 256 109 256 179 c 2
 256 563 l 2
 256 633 314 691 384 691 c 2
 640 691 l 2
640 627 m 2
 384 627 l 2
 349 627 320 598 320 563 c 2
 320 179 l 2
 320 144 349 115 384 115 c 2
 640 115 l 2
 675 115 704 144 704 179 c 2
 704 563 l 2
 704 598 675 627 640 627 c 2
801 637 m 1
 789 684 750 723 700 723 c 0
 699 723 697 723 696 723 c 1
 694 787 l 1
 696 787 698 787 700 787 c 0
 785 787 846 722 863 652 c 1
 801 637 l 1
EndSplineSet
Validated: 1
EndChar

StartChar: uF0073
Encoding: 983155 983155 42
Width: 1024
VWidth: 0
Flags: W
HStem: -103 52<229 820> -0 21G<708 722> 358 51<229 327 378 820> 691 51<445.868 645.62>
VStem: 178 51<-51 358> 327 51<409 632.414> 690 51<0.283447 217.717> 715 52<582 632.414> 820 51<-51 358>
LayerCount: 2
Back
Fore
SplineSet
741 25 m 2xfe80
 741 11 729 0 715 -0 c 0xfd80
 701 0 690 11 690 25 c 2
 690 193 l 2xfe80
 690 207 701 218 715 218 c 0xfd80
 729 218 741 207 741 193 c 2
 741 25 l 2xfe80
767 582 m 1
 715 582 l 1
 715 634 648 691 547 691 c 0
 446 691 378 634 378 582 c 2
 378 409 l 1
 820 409 l 2
 848 409 871 386 871 358 c 2
 871 -51 l 2
 871 -79 848 -103 820 -103 c 2
 229 -103 l 2
 201 -103 178 -79 178 -51 c 2
 178 358 l 2
 178 386 201 409 229 409 c 2
 327 409 l 1
 327 582 l 2
 327 678 434 742 547 742 c 0
 660 742 767 678 767 582 c 1
820 358 m 1
 229 358 l 1
 229 -51 l 1
 820 -51 l 1
 820 358 l 1
EndSplineSet
Validated: 1
EndChar

StartChar: uF0074
Encoding: 983156 983156 43
Width: 1024
VWidth: 0
Flags: W
HStem: -84 51<405.422 644.539> 530 51<318 410> 665 51<417.572 644.539>
VStem: 130 51<185.38 252.265> 230 52<617 709> 487 51<264 566> 874 51<196.461 435.539>
LayerCount: 2
Back
Fore
SplineSet
282 709 m 1
 282 617 l 1
 347 675 428 716 525 716 c 0
 746 716 925 537 925 316 c 0
 925 95 746 -84 525 -84 c 0
 326 -84 161 61 130 251 c 1
 181 260 l 1
 208 94 352 -33 525 -33 c 0
 718 -33 874 123 874 316 c 0
 874 509 718 665 525 665 c 0
 445 665 376 631 318 581 c 1
 410 581 l 1
 410 530 l 1
 230 530 l 1
 230 709 l 1
 282 709 l 1
538 566 m 1
 538 264 l 1
 710 93 l 1
 673 57 l 1
 487 243 l 1
 487 566 l 1
 538 566 l 1
EndSplineSet
Validated: 1
EndChar

StartChar: uF0076
Encoding: 983158 983158 44
Width: 1024
VWidth: 0
Flags: W
HStem: -52 51<384.382 639.618> 99 51<437.497 586.503> 429 51<437.497 586.503> 580 51<384.382 639.795>
VStem: 52 51<228.235 351.845> 322 51<214.918 364.151> 651 51<214.849 364.082> 921 51<228.262 351.678>
LayerCount: 2
Back
Fore
SplineSet
972 290 m 0
 972 171 774 -52 512 -52 c 0
 250 -52 52 172 52 290 c 0
 52 409 250 631 512 631 c 0
 775 631 972 408 972 290 c 0
921 290 m 0
 921 369 751 580 512 580 c 0
 273 580 103 369 103 290 c 0
 103 211 273 -1 512 -1 c 0
 751 -1 921 212 921 290 c 0
512 429 m 0
 435 429 373 366 373 289 c 0
 373 212 435 150 512 150 c 0
 589 150 651 213 651 290 c 0
 651 367 589 429 512 429 c 0
322 290 m 0
 322 395 407 480 512 480 c 0
 617 480 702 394 702 289 c 0
 702 184 617 99 512 99 c 0
 407 99 322 185 322 290 c 0
EndSplineSet
Validated: 1
EndChar

StartChar: uF0077
Encoding: 983159 983159 45
Width: 1024
VWidth: 0
Flags: W
HStem: -51 51<379.991 639.618> 100 51<437.197 586.503> 429 51<437.497 566.522> 580 51<384.382 645.244>
VStem: 52 51<225.873 351.652> 322 51<226.882 364.503> 651 51<215.497 365.208> 921 51<228.348 352.543>
LayerCount: 2
Back
Fore
SplineSet
512 480 m 0
 545 480 576 472 603 457 c 1
 683 543 l 1
 632 566 574 580 512 580 c 0
 273 580 103 368 103 290 c 0
 103 244 161 152 257 84 c 1
 352 186 l 1
 333 216 322 252 322 290 c 0
 322 395 407 480 512 480 c 0
921 290 m 0
 921 342 848 450 731 519 c 1
 645 426 l 1
 680 391 702 343 702 290 c 0
 702 185 617 100 512 100 c 0
 464 100 420 117 386 147 c 1
 301 57 l 1
 361 23 433 0 512 -0 c 0
 751 0 921 212 921 290 c 0
863 661 m 1
 767 558 l 1
 892 482 972 365 972 290 c 0
 972 171 774 -51 512 -51 c 0
 420 -51 335 -24 265 17 c 1
 197 -56 l 1
 159 -21 l 1
 221 45 l 1
 117 120 52 222 52 290 c 0
 52 409 250 631 512 631 c 0
 588 631 659 612 721 583 c 1
 825 696 l 1
 863 661 l 1
610 389 m 1
 421 185 l 1
 445 164 477 151 512 151 c 0
 589 151 651 213 651 290 c 0
 651 329 635 364 610 389 c 1
567 418 m 1
 550 425 532 429 512 429 c 0
 435 429 373 367 373 290 c 0
 373 267 379 245 389 226 c 1
 567 418 l 1
EndSplineSet
Validated: 1
EndChar

StartChar: uF0079
Encoding: 983161 983161 46
Width: 1024
VWidth: 0
Flags: W
HStem: 119 51<446.379 589.857> 281 52<77.2834 180.813 853.274 946.717> 431 51<446.379 589.857>
VStem: 337 51<229.143 372.621> 486 52<-127.717 -34.2737 635.28 741.717> 649 51<229.143 372.621>
LayerCount: 2
Back
Fore
SplineSet
222 -8 m 0
 208 -8 197 3 197 17 c 0
 197 24 199 30 204 35 c 2
 257 88 l 1
 213 142 184 211 181 285 c 1
 177 283 174 281 169 281 c 2
 102 281 l 2
 88 281 77 293 77 307 c 0
 77 321 88 333 102 333 c 2
 169 333 l 2
 174 333 178 331 182 329 c 1
 188 402 218 468 263 520 c 1
 204 578 l 2
 199 583 197 590 197 597 c 0
 197 611 208 622 222 622 c 0
 229 622 235 620 240 615 c 2
 299 556 l 1
 350 600 415 629 486 636 c 1
 486 717 l 2
 486 731 498 742 512 742 c 0
 526 742 538 731 538 717 c 2
 538 637 l 1
 612 633 678 605 732 561 c 1
 733 563 735 566 737 568 c 2
 784 615 l 2
 789 620 795 622 802 622 c 0
 816 622 827 611 827 597 c 0
 827 590 825 583 820 578 c 2
 773 532 l 2
 771 530 770 529 768 528 c 1
 816 475 847 408 854 333 c 1
 922 333 l 2
 936 333 947 321 947 307 c 0
 947 293 936 281 922 281 c 2
 855 281 l 1
 851 205 821 136 774 81 c 1
 820 35 l 2
 825 30 827 24 827 17 c 0
 827 3 816 -8 802 -8 c 0
 795 -8 789 -6 784 -1 c 2
 738 45 l 1
 683 -2 614 -32 538 -36 c 1
 538 -103 l 2
 538 -117 526 -128 512 -128 c 0
 498 -128 486 -117 486 -103 c 2
 486 -35 l 1
 412 -28 344 3 292 51 c 1
 240 -1 l 2
 235 -6 229 -8 222 -8 c 0
518 587 m 0
 360 587 232 459 232 301 c 0
 232 143 360 14 518 14 c 0
 676 14 805 143 805 301 c 0
 805 459 676 587 518 587 c 0
518 482 m 0
 618 482 700 401 700 301 c 0
 700 201 618 119 518 119 c 0
 418 119 337 201 337 301 c 0
 337 401 418 482 518 482 c 0
518 431 m 0
 446 431 388 373 388 301 c 0
 388 229 446 170 518 170 c 0
 590 170 649 229 649 301 c 0
 649 373 590 431 518 431 c 0
EndSplineSet
Validated: 1
EndChar

StartChar: uF007A
Encoding: 983162 983162 47
Width: 1024
VWidth: 0
Flags: W
HStem: -65 51<179.308 844.692> 652 51<179.308 690.717>
VStem: 128 51<-13.6918 651.692> 845 51<-13.6918 446.692>
LayerCount: 2
Back
Fore
SplineSet
845 677 m 0
 859 677 870 666 870 652 c 0
 870 646 868 640 864 635 c 2
 420 123 l 2
 415 117 408 114 401 114 c 0
 386 114 375 126 375 140 c 0
 375 146 378 151 382 156 c 2
 825 668 l 2
 830 674 838 677 845 677 c 0
845 12 m 2
 845 421 l 2
 845 435 856 447 870 447 c 0
 884 447 896 435 896 421 c 2
 896 -39 l 2
 896 -53 884 -65 870 -65 c 2
 154 -65 l 2
 140 -65 128 -53 128 -39 c 2
 128 677 l 2
 128 691 140 703 154 703 c 2
 666 703 l 2
 680 703 691 691 691 677 c 0
 691 663 680 652 666 652 c 2
 205 652 l 2
 191 652 179 640 179 626 c 2
 179 12 l 2
 179 -2 191 -14 205 -14 c 2
 819 -14 l 2
 833 -14 845 -2 845 12 c 2
EndSplineSet
Validated: 1
EndChar

StartChar: uF007C
Encoding: 983164 983164 48
Width: 1024
VWidth: 0
Flags: W
HStem: -51 51<194 828> 558 56<227 797>
VStem: 102 52<32 559> 870 52<31 559>
LayerCount: 2
Back
Fore
SplineSet
797 558 m 1
 227 558 l 1
 512 277 l 1
 797 558 l 1
657 224 m 1
 870 31 l 1
 870 559 l 1
 548 241 l 2
 538 231 525 226 512 226 c 0
 499 226 486 231 476 241 c 2
 154 559 l 1
 154 32 l 1
 358 223 l 1
 393 186 l 1
 194 -0 l 1
 828 -0 l 1
 623 186 l 1
 657 224 l 1
870 614 m 2
 898 614 922 591 922 563 c 2
 922 -0 l 2
 922 -28 898 -51 870 -51 c 2
 154 -51 l 2
 126 -51 102 -28 102 -0 c 2
 102 563 l 2
 102 591 126 614 154 614 c 2
 870 614 l 2
EndSplineSet
Validated: 1
EndChar

StartChar: uF007D
Encoding: 983165 983165 49
Width: 1024
VWidth: 0
Flags: W
HStem: -103 52<437.73 684.894> 102 51<611.63 809.776>
VStem: 165 51<167.914 405.173> 394 51<322.172 518.914>
LayerCount: 2
Back
Fore
SplineSet
477 625 m 1
 353 603 240 480 219 336 c 0
 217 320 216 304 216 288 c 0
 216 122 338 -23 506 -47 c 0
 527 -50 548 -51 567 -51 c 0
 736 -51 830 63 866 143 c 1
 822 124 770 102 717 102 c 0
 620 102 529 146 467 224 c 0
 419 283 394 354 394 426 c 0
 394 447 396 467 400 488 c 0
 410 535 445 583 477 625 c 1
516 680 m 0
 528 680 539 679 551 677 c 0
 559 676 562 673 562 667 c 0
 562 636 464 544 450 478 c 0
 446 461 445 443 445 426 c 0
 445 281 568 153 717 153 c 0
 793 153 883 216 918 216 c 0
 930 216 936 209 934 190 c 0
 922 111 818 -103 567 -103 c 0
 546 -103 523 -101 499 -98 c 0
 305 -70 165 97 165 287 c 0
 165 306 166 324 169 343 c 0
 195 528 355 680 516 680 c 0
EndSplineSet
Validated: 1
EndChar

StartChar: uF007F
Encoding: 983167 983167 50
Width: 1024
VWidth: 0
Flags: W
HStem: -103 52<179 435 589 845> 205 51<179 435 589 845> 307 51<179 435 589 845> 614 51<179 435 589 845>
VStem: 128 51<-51 205 358 614> 435 51<-51 205 358 614> 538 51<-51 205 358 614> 845 51<-51 205 358 614>
LayerCount: 2
Back
Fore
SplineSet
435 614 m 1
 179 614 l 1
 179 358 l 1
 435 358 l 1
 435 614 l 1
435 665 m 2
 463 665 486 642 486 614 c 2
 486 358 l 2
 486 330 463 307 435 307 c 2
 179 307 l 2
 151 307 128 330 128 358 c 2
 128 614 l 2
 128 642 151 665 179 665 c 2
 435 665 l 2
845 614 m 1
 589 614 l 1
 589 358 l 1
 845 358 l 1
 845 614 l 1
845 665 m 2
 873 665 896 642 896 614 c 2
 896 358 l 2
 896 330 873 307 845 307 c 2
 589 307 l 2
 561 307 538 330 538 358 c 2
 538 614 l 2
 538 642 561 665 589 665 c 2
 845 665 l 2
435 205 m 1
 179 205 l 1
 179 -51 l 1
 435 -51 l 1
 435 205 l 1
435 256 m 2
 463 256 486 233 486 205 c 2
 486 -51 l 2
 486 -79 463 -103 435 -103 c 2
 179 -103 l 2
 151 -103 128 -79 128 -51 c 2
 128 205 l 2
 128 233 151 256 179 256 c 2
 435 256 l 2
845 205 m 1
 589 205 l 1
 589 -51 l 1
 845 -51 l 1
 845 205 l 1
845 256 m 2
 873 256 896 233 896 205 c 2
 896 -51 l 2
 896 -79 873 -103 845 -103 c 2
 589 -103 l 2
 561 -103 538 -79 538 -51 c 2
 538 205 l 2
 538 233 561 256 589 256 c 2
 845 256 l 2
EndSplineSet
Validated: 1
EndChar

StartChar: uF0086
Encoding: 983174 983174 51
Width: 1024
VWidth: 0
Flags: W
HStem: -0 51<154.283 204.692 307.308 869.717> 256 51<154.283 204.692 307.308 869.717> 512 51<154.283 204.692 307.308 869.717>
VStem: 154 51<0.283447 50.6918 256.283 306.692 512.283 562.692>
LayerCount: 2
Back
Fore
SplineSet
179 512 m 0
 165 512 154 523 154 537 c 0
 154 551 165 563 179 563 c 0
 193 563 205 551 205 537 c 0
 205 523 193 512 179 512 c 0
845 512 m 2
 333 512 l 2
 319 512 307 523 307 537 c 0
 307 551 319 563 333 563 c 2
 845 563 l 2
 859 563 870 551 870 537 c 0
 870 523 859 512 845 512 c 2
179 256 m 0
 165 256 154 267 154 281 c 0
 154 295 165 307 179 307 c 0
 193 307 205 295 205 281 c 0
 205 267 193 256 179 256 c 0
845 256 m 2
 333 256 l 2
 319 256 307 267 307 281 c 0
 307 295 319 307 333 307 c 2
 845 307 l 2
 859 307 870 295 870 281 c 0
 870 267 859 256 845 256 c 2
179 -0 m 0
 165 0 154 11 154 25 c 0
 154 39 165 51 179 51 c 0
 193 51 205 39 205 25 c 0
 205 11 193 0 179 -0 c 0
845 -0 m 2
 333 -0 l 2
 319 0 307 11 307 25 c 0
 307 39 319 51 333 51 c 2
 845 51 l 2
 859 51 870 39 870 25 c 0
 870 11 859 0 845 -0 c 2
EndSplineSet
Validated: 1
EndChar

StartChar: uF0087
Encoding: 983175 983175 52
Width: 1024
VWidth: 0
Flags: W
LayerCount: 2
Back
Fore
SplineSet
910 528 m 1
 432 45 l 1
 414 63 l 1
 397 44 l 1
 115 298 l 1
 150 336 l 1
 413 98 l 1
 873 564 l 1
 910 528 l 1
EndSplineSet
Validated: 1
EndChar

StartChar: uF0088
Encoding: 983176 983176 53
Width: 1024
VWidth: 0
Flags: W
HStem: -103 52<149 876> 633 51<413.746 586.254>
VStem: 97 51<-49.4459 37.7912> 262 51<362.779 532.048> 687 51<357.884 532.048> 876 51<-48.5381 30.0936>
LayerCount: 2
Back
Fore
SplineSet
215 -51 m 0
 415 -51 680 -50 876 -50 c 1
 876 -32 869 7 844 53 c 0
 822 93 757 189 639 208 c 0
 614 213 597 236 597 260 c 0
 597 274 602 288 616 299 c 0
 661 335 687 388 687 446 c 0
 687 549 603 633 500 633 c 0
 397 633 313 549 313 446 c 0
 313 387 340 338 393 301 c 0
 408 290 415 275 415 260 c 0
 415 236 398 212 371 208 c 0
 279 195 207 111 173 44 c 0
 153 4 148 -25 148 -41 c 0
 148 -46 149 -49 149 -51 c 1
 170 -51 192 -51 215 -51 c 0
500 684 m 0
 632 684 738 577 738 446 c 0
 738 370 703 302 648 259 c 1
 827 229 927 46 927 -47 c 0
 927 -80 915 -101 889 -101 c 0
 665 -101 342 -103 148 -103 c 0
 113 -103 97 -78 97 -41 c 0
 97 56 207 236 364 259 c 1
 302 302 262 365 262 446 c 0
 262 577 368 684 500 684 c 0
EndSplineSet
Validated: 1
EndChar

StartChar: uF0089
Encoding: 983177 983177 54
Width: 1024
VWidth: 0
Flags: W
HStem: -166 51<682 744.171> 111 52<361.899 506> 327 52<374.055 497.861>
VStem: 160 51<305.019 535.021> 532 51<413.925 548.244> 638 51<209 234.492> 722 51<316.679 523.199>
LayerCount: 2
Back
Fore
SplineSet
476 733 m 0
 545 733 686 664 739 561 c 0
 762 516 773 468 773 421 c 0
 773 343 743 267 689 209 c 1
 689 209 774 44 824 -52 c 0
 826 -57 828 -62 828 -67 c 0
 828 -112 739 -166 682 -166 c 0
 663 -166 648 -160 641 -146 c 0
 591 -50 506 114 506 114 c 1
 492 112 478 111 464 111 c 0
 352 111 245 171 190 277 c 0
 168 319 160 370 160 419 c 0
 160 519 195 612 231 612 c 0
 242 612 252 604 262 585 c 0
 285 541 335 446 335 446 c 2
 357 404 398 379 438 379 c 0
 453 379 467 382 480 389 c 0
 514 406 532 442 532 481 c 0
 532 501 528 522 518 541 c 2
 518 541 468 636 445 680 c 0
 439 691 437 700 437 707 c 0
 437 725 452 733 476 733 c 0
504 678 m 1
 563 564 l 2
 577 537 583 509 583 481 c 0
 583 423 555 369 504 343 c 0
 484 332 461 327 438 327 c 0
 378 327 319 365 289 423 c 2
 230 536 l 1
 220 508 211 463 211 417 c 0
 211 377 217 336 235 301 c 0
 279 216 367 163 464 163 c 0
 476 163 487 163 499 165 c 0
 501 165 504 166 506 166 c 0
 525 166 543 155 552 138 c 2
 682 -115 l 1
 714 -115 763 -86 775 -68 c 1
 644 186 l 2
 640 193 638 201 638 209 c 0
 638 222 643 234 652 244 c 0
 698 293 722 357 722 421 c 0
 722 461 712 501 693 538 c 0
 656 610 562 663 504 678 c 1
EndSplineSet
Validated: 1
EndChar

StartChar: uF008A
Encoding: 983178 983178 55
Width: 1024
VWidth: 0
Flags: W
HStem: -103 52<179 742> 205 51<282.283 435 486 639.692> 512 51<179 742> 614 51<333.283 844.862>
VStem: 128 51<-51 512> 435 51<51.3082 205 256 408.717> 742 52<-51 512> 845 51<102.308 613.717>
LayerCount: 2
Back
Fore
SplineSet
870 665 m 0
 884 665 896 654 896 640 c 0
 896 626 896 603 896 589 c 2
 896 128 l 2
 896 114 884 102 870 102 c 0
 856 102 845 114 845 128 c 2
 845 589 l 2
 845 603 833 614 819 614 c 2
 358 614 l 2
 344 614 333 626 333 640 c 0
 333 654 344 665 358 665 c 2
 819 665 l 2
 833 665 856 665 870 665 c 0
461 409 m 0
 475 409 486 398 486 384 c 2
 486 256 l 1
 614 256 l 2
 628 256 640 244 640 230 c 0
 640 216 628 205 614 205 c 2
 486 205 l 1
 486 77 l 2
 486 63 475 51 461 51 c 0
 447 51 435 63 435 77 c 2
 435 205 l 1
 307 205 l 2
 293 205 282 216 282 230 c 0
 282 244 293 256 307 256 c 2
 435 256 l 1
 435 384 l 2
 435 398 447 409 461 409 c 0
768 563 m 2
 782 563 794 551 794 537 c 2
 794 -77 l 2
 794 -91 782 -103 768 -103 c 2
 154 -103 l 2
 140 -103 128 -91 128 -77 c 2
 128 537 l 2
 128 551 140 563 154 563 c 2
 768 563 l 2
742 512 m 1
 179 512 l 1
 179 -51 l 1
 742 -51 l 1
 742 512 l 1
EndSplineSet
Validated: 1
EndChar

StartChar: uF008B
Encoding: 983179 983179 56
Width: 1024
VWidth: 0
Flags: W
HStem: -130 51<443.276 580.724> -20 51<203 372 423 601 652 821> 99 59<245 779> 642 51<409.665 621.448>
VStem: 139 64<31 65.0742> 215 51<162.717 475.982> 372 51<-58.3218 -20> 601 51<-58.3218 -20> 758 51<162.717 481.676> 821 64<31 65.0742>
LayerCount: 2
Back
Fore
SplineSet
512 693 m 0
 690 693 809 575 809 337 c 0
 809 147 885 33 885 -5 c 0
 885 -15 880 -20 868 -20 c 2
 652 -20 l 1
 652 -82 591 -130 512 -130 c 0
 433 -130 372 -82 372 -20 c 1
 156 -20 l 2
 144 -20 139 -15 139 -5 c 0
 139 33 215 147 215 337 c 0
 215 575 348 693 512 693 c 0
512 642 m 0
 360 642 266 525 266 337 c 0
 266 268 257 208 245 158 c 1
 779 158 l 1
 767 208 758 268 758 337 c 0
 758 534 671 642 512 642 c 0
601 31 m 1
 652 31 l 1
 821 31 l 2
 821 32 820 32 820 33 c 0
 813 51 804 73 796 99 c 1
 228 99 l 1
 220 73 211 51 204 33 c 0
 204 32 203 32 203 31 c 2
 372 31 l 1
 423 31 l 1
 601 31 l 1
601 -20 m 1
 423 -20 l 1
 423 -53 463 -79 512 -79 c 0
 561 -79 601 -53 601 -20 c 1
EndSplineSet
Validated: 1
EndChar

StartChar: uF00A0
Encoding: 983200 983200 57
Width: 1024
VWidth: 0
Flags: W
HStem: -102 34<365.659 778.267> 375 35<565.145 821.731> 682 34<467.948 536.289>
VStem: 166 33<-33.9768 394.977> 264 34<55.7373 381.707> 531 34<410.314 528.044> 561 34<518.03 655.7> 849 34<3.87317 342.644>
LayerCount: 2
Back
Fore
SplineSet
469 672 m 0xfb
 465 667 461 638 459 619 c 0
 451 550 439 436 304 380 c 1
 300 361 298 316 298 259 c 0
 298 181 301 79 307 -14 c 1
 319 -28 362 -68 471 -68 c 2
 678 -68 l 2
 842 -68 849 1 849 171 c 0
 849 313 843 375 781 375 c 2
 576 375 l 2
 563 375 550 382 542 392 c 0
 534 402 531 415 531 432 c 0xfd
 531 457 538 492 550 543 c 0
 555 562 561 588 561 595 c 0
 561 632 541 682 503 682 c 0
 493 682 482 679 469 672 c 0xfb
503 716 m 0
 562 716 595 652 595 595 c 0xfb
 595 571 565 476 565 432 c 0
 565 418 568 410 576 410 c 2
 781 410 l 2
 883 410 883 298 883 171 c 0
 883 13 883 -102 678 -102 c 2
 471 -102 l 2
 316 -102 273 -25 273 -25 c 1
 273 -25 264 133 264 258 c 0
 264 337 267 402 280 407 c 0
 473 478 396 671 452 702 c 0
 470 712 488 716 503 716 c 0
183 395 m 0
 192 395 199 387 199 378 c 2
 199 -17 l 2
 199 -26 192 -34 183 -34 c 0
 174 -34 166 -26 166 -17 c 2
 166 378 l 2
 166 387 174 395 183 395 c 0
EndSplineSet
Validated: 1
EndChar

StartChar: uF00A1
Encoding: 983201 983201 58
Width: 1024
VWidth: 0
Flags: W
HStem: -120 33<252 799> 501 32<252 418.997 628.003 799>
VStem: 218 34<-87 501> 505 38<190 733.948> 799 34<-87 501>
LayerCount: 2
Back
Fore
SplineSet
799 533 m 2
 818 533 833 519 833 501 c 2
 833 -87 l 2
 833 -105 818 -120 799 -120 c 2
 252 -120 l 2
 233 -120 218 -105 218 -87 c 2
 218 501 l 2
 218 519 233 533 252 533 c 2
 252 533 389 533 406 533 c 0
 415 533 419 525 419 517 c 0
 419 509 415 501 406 501 c 0
 355 501 252 501 252 501 c 1
 252 -87 l 1
 799 -87 l 1
 799 501 l 1
 799 501 692 501 641 501 c 0
 632 501 628 509 628 517 c 0
 628 525 632 533 641 533 c 0
 658 533 799 533 799 533 c 2
543 190 m 1
 678 333 l 2
 684 340 695 339 702 333 c 2
 705 331 l 2
 712 325 712 313 706 306 c 2
 545 136 l 2
 544 135 543 135 542 134 c 0
 539 128 533 124 526 124 c 2
 522 124 l 2
 515 124 509 128 506 134 c 0
 505 135 505 135 504 136 c 2
 342 306 l 2
 336 313 336 325 343 331 c 2
 346 333 l 2
 353 339 364 340 370 333 c 2
 505 190 l 1
 505 717 l 2
 505 726 513 734 522 734 c 2
 526 734 l 2
 535 734 543 726 543 717 c 2
 543 190 l 1
EndSplineSet
Validated: 1
EndChar

StartChar: uF00A2
Encoding: 983202 983202 59
Width: 1024
VWidth: 0
Flags: W
HStem: -45 34<701.448 810.306> 43 34<248.119 378.311> 184 34<701.697 810.306> 362 34<248.119 379.38> 440 35<553.058 648.858> 625 34<553.442 648.858>
VStem: 137 34<154.943 284.881> 456 34<193.774 285.746> 492 34<502.476 597.558> 624 34<31.6936 125.435> 677 34<503.045 596.859> 853 34<31.6936 140.552>
LayerCount: 2
Back
Fore
SplineSet
756 184 m 0
 702 184 658 140 658 86 c 0
 658 32 702 -11 756 -11 c 0
 810 -11 853 32 853 86 c 0
 853 140 810 184 756 184 c 0
601 659 m 0
 661 659 711 610 711 550 c 0
 711 490 661 440 601 440 c 0
 576 440 554 448 536 462 c 1
 428 354 l 1
 466 322 490 274 490 220 c 0
 490 212 489 204 488 196 c 1
 644 155 l 1
 667 193 709 218 756 218 c 0
 829 218 887 159 887 86 c 0
 887 13 829 -45 756 -45 c 0
 683 -45 624 13 624 86 c 0
 624 99 627 111 630 123 c 1
 481 163 l 1
 457 93 391 43 313 43 c 0
 215 43 137 122 137 220 c 0
 137 318 215 396 313 396 c 0
 344 396 374 388 399 374 c 1
 512 487 l 1
 499 505 492 526 492 550 c 0
 492 610 541 659 601 659 c 0
601 625 m 0
 559 625 526 592 526 550 c 0
 526 508 559 475 601 475 c 0
 643 475 677 508 677 550 c 0
 677 592 643 625 601 625 c 0
313 362 m 0
 234 362 171 299 171 220 c 0
 171 141 234 77 313 77 c 0
 392 77 456 141 456 220 c 0
 456 299 392 362 313 362 c 0
EndSplineSet
Validated: 1
EndChar

StartChar: uF00B0
Encoding: 983216 983216 60
Width: 1024
VWidth: 0
Flags: W
HStem: -109 32<192 416 608 832> 147 32<448 576>
VStem: 160 32<-77 368.998> 416 32<-77 147> 576 32<-77 147> 832 32<-77 368.998>
LayerCount: 2
Back
Fore
SplineSet
512 646 m 0
 511 646 510 646 510 646 c 2
 205 369 l 2
 199 363 192 348 192 339 c 2
 192 -77 l 1
 416 -77 l 1
 416 8 416 94 416 179 c 1
 608 179 l 1
 608 94 608 8 608 -77 c 1
 832 -77 l 1
 832 339 l 2
 832 348 825 363 819 369 c 2
 514 646 l 2
 514 646 513 646 512 646 c 0
512 678 m 0
 521 678 529 675 536 669 c 2
 840 393 l 2
 853 381 864 357 864 339 c 2
 864 -77 l 2
 864 -95 850 -109 832 -109 c 2
 608 -109 l 2
 590 -109 576 -95 576 -77 c 2
 576 147 l 1
 448 147 l 1
 448 -77 l 2
 448 -95 434 -109 416 -109 c 2
 192 -109 l 2
 174 -109 160 -95 160 -77 c 2
 160 339 l 2
 160 357 171 381 184 393 c 2
 488 669 l 2
 495 675 503 678 512 678 c 0
EndSplineSet
Validated: 1
EndChar

StartChar: uF00B1
Encoding: 983217 983217 61
Width: 1024
VWidth: 0
Flags: W
VStem: 172 288<-101.589 153> 588 288<-101.589 153>
LayerCount: 2
Back
Fore
SplineSet
548 675 m 2
 852 399 l 2
 865 387 876 363 876 345 c 2
 876 -71 l 2
 876 -89 862 -103 844 -103 c 2
 620 -103 l 2
 602 -103 588 -89 588 -71 c 2
 588 -71 588 89 588 153 c 2
 460 153 l 2
 460 121 460 -71 460 -71 c 2
 460 -89 446 -103 428 -103 c 2
 204 -103 l 2
 186 -103 172 -89 172 -71 c 2
 172 345 l 2
 172 363 183 387 196 399 c 2
 500 675 l 2
 507 681 515 684 524 684 c 0
 533 684 541 681 548 675 c 2
EndSplineSet
Validated: 1
EndChar

StartChar: uF00B2
Encoding: 983218 983218 62
Width: 1024
VWidth: 0
Flags: W
HStem: -103 32<324.697 390.823> 93 32<762.903 824.843> 169 32<539.12 653.015> 265 32<496.704 634.505> 322 32<535.653 864.855> 408 32<596.939 823.026> 429 32<756.006 870.952> 712 32<424.362 495.002>
VStem: 122 31<93.4736 153.447> 171 32<578.625 637.381> 316 32<305.229 403.576> 422 32<299.531 386.711> 898 32<369.593 419.622>
LayerCount: 2
Back
Fore
SplineSet
536 297 m 0xf9f8
 635 297 855 220 876 208 c 0
 882 204 885 197 885 188 c 0
 885 156 853 100 818 94 c 0
 816 94 813 93 811 93 c 0
 763 93 659 169 586 169 c 0
 578 169 571 169 564 167 c 0
 485 146 435 -55 415 -80 c 0
 402 -96 382 -103 362 -103 c 0
 326 -103 291 -81 291 -57 c 0
 291 -54 291 -51 293 -47 c 0
 320 11 429 273 508 294 c 0
 515 296 525 297 536 297 c 0xf9f8
536 265 m 0
 526 265 520 264 517 263 c 0
 491 256 438 199 332 -37 c 0
 329 -45 326 -52 324 -57 c 1
 329 -62 343 -71 362 -71 c 0
 370 -71 383 -69 390 -60 c 0
 393 -55 402 -32 409 -14 c 0
 448 87 489 180 556 198 c 0
 565 200 575 201 586 201 c 0
 634 201 687 176 734 154 c 0
 763 140 797 125 811 125 c 0
 828 128 850 165 853 183 c 1
 809 202 619 265 536 265 c 0
243 685 m 0
 252 685 260 681 265 674 c 0
 300 625 454 421 454 332 c 0
 454 327 453 322 452 317 c 0
 432 241 216 55 193 42 c 0
 191 41 188 39 185 39 c 0
 159 39 122 93 122 133 c 0
 122 139 122 144 124 149 c 0
 141 196 294 257 314 333 c 0
 315 338 316 343 316 349 c 0
 316 430 186 557 175 585 c 0
 172 592 171 599 171 606 c 0
 171 647 213 685 243 685 c 0
241 653 m 1
 235 652 222 644 212 630 c 0
 208 625 203 616 203 606 c 0
 203 603 204 600 205 597 c 0
 208 592 223 572 235 557 c 0
 295 483 348 412 348 350 c 0
 348 341 347 333 345 325 c 0
 330 271 271 228 218 191 c 0
 194 174 158 150 154 139 c 0
 153 137 153 134 153 132 c 0
 153 114 171 84 184 74 c 1
 229 108 406 269 421 325 c 0
 422 328 422 330 422 334 c 0
 422 367 390 446 253 635 c 0
 248 642 244 648 241 653 c 1
453 744 m 0
 479 744 506 737 519 722 c 0
 551 684 527 522 583 466 c 0
 603 446 639 440 679 440 c 0xfdf8
 752 440 838 461 866 461 c 0xfbf8
 868 461 870 460 871 460 c 0
 910 454 930 412 930 379 c 0
 930 357 921 340 903 338 c 0
 867 335 760 322 664 322 c 0
 591 322 525 329 500 354 c 0
 445 410 391 690 391 716 c 0
 391 734 421 744 453 744 c 0
453 712 m 0
 439 712 430 710 424 708 c 1
 431 652 482 418 523 377 c 0
 528 372 554 354 664 354 c 0
 742 354 828 363 875 368 c 0
 883 369 890 369 896 370 c 1
 897 372 898 375 898 379 c 0
 898 386 896 395 892 404 c 0
 889 412 881 427 866 429 c 0xfbf8
 858 429 838 425 817 422 c 0
 779 416 726 408 679 408 c 0
 623 408 584 419 560 443 c 0
 520 483 514 556 508 620 c 0
 505 649 501 692 494 701 c 0
 490 705 476 712 453 712 c 0
EndSplineSet
Validated: 1
EndChar

StartChar: uF00B3
Encoding: 983219 983219 63
Width: 1024
VWidth: 0
Flags: W
HStem: -62 128<575.723 672.277> 144 128<543.395 679.263> 271 128<131.723 228.277> 296 119<599.261 927.344> 313 122<693.431 920.057> 488 128<641.723 738.277>
VStem: 116 128<286.723 383.277> 302 124<-113.653 -54.8831> 327 138<272.535 382.242> 560 128<-46.2768 50.2768> 626 128<503.723 600.277>
LayerCount: 2
Back
Fore
SplineSet
530 697 m 0x96
 562 659 538 497 594 441 c 0
 614 421 650 415 690 415 c 0x96
 763 415 849 435 877 435 c 0
 879 435 881 435 882 435 c 0
 921 429 941 387 941 354 c 0
 941 332 932 315 914 313 c 0x8e
 878 310 771 296 675 296 c 0
 602 296 536 304 511 329 c 0
 455 385 402 664 402 691 c 0
 402 709 432 719 464 719 c 0
 490 719 517 712 530 697 c 0x96
135 124 m 0
 152 171 305 231 325 307 c 0
 326 312 327 318 327 324 c 0
 327 405 197 532 186 560 c 0
 183 567 182 574 182 581 c 0
 182 622 224 659 254 659 c 0
 263 659 271 656 276 649 c 0
 311 600 465 395 465 306 c 0x8680
 465 301 464 296 463 291 c 0
 443 215 227 29 204 16 c 0
 202 15 200 14 197 14 c 0
 172 14 133 68 133 108 c 0
 133 114 133 119 135 124 c 0
829 69 m 0
 827 69 824 68 822 68 c 0
 774 68 670 144 597 144 c 0
 589 144 582 143 575 141 c 0
 496 120 446 -80 426 -105 c 0
 413 -121 394 -128 374 -128 c 0
 338 -128 302 -106 302 -82 c 0
 302 -79 302 -76 304 -72 c 0
 331 -14 441 248 520 269 c 0
 527 271 536 272 547 272 c 0xc7
 646 272 867 194 888 182 c 0
 894 178 896 171 896 162 c 0
 896 130 864 75 829 69 c 0
626 552 m 0x8620
 626 587 655 616 690 616 c 0
 725 616 754 587 754 552 c 0
 754 517 725 488 690 488 c 0
 655 488 626 517 626 552 c 0x8620
116 335 m 0
 116 370 145 399 180 399 c 0
 215 399 244 370 244 335 c 0
 244 300 215 271 180 271 c 0xa6
 145 271 116 300 116 335 c 0
560 2 m 0x8640
 560 37 589 66 624 66 c 0
 659 66 688 37 688 2 c 0
 688 -33 659 -62 624 -62 c 0
 589 -62 560 -33 560 2 c 0x8640
EndSplineSet
Validated: 1
EndChar

StartChar: uF00B4
Encoding: 983220 983220 64
Width: 1024
VWidth: 0
Flags: W
HStem: -63 32<143.622 901.622> 687 32<434.433 585.444>
VStem: 109 32<-30.4401 66.1492> 273 32<407.556 557.567> 714 32<403.819 559.879> 902 31<-28.7305 58.6298>
LayerCount: 2
Back
Fore
SplineSet
160 -31 m 0
 367 -31 686 -29 896 -29 c 0
 897 -29 898 -29 898 -29 c 1
 900 -27 902 -20 902 -8 c 0
 902 4 900 20 893 42 c 0
 864 135 776 244 651 265 c 0
 635 268 624 282 624 297 c 0
 624 306 628 314 636 321 c 0
 686 360 714 419 714 482 c 0
 714 595 623 687 510 687 c 0
 397 687 305 595 305 482 c 0
 305 401 353 351 393 323 c 0
 402 317 406 306 406 297 c 0
 406 282 396 267 379 265 c 0
 239 245 141 80 141 -1 c 0
 141 -3 142 -5 142 -7 c 0
 144 -30 152 -31 160 -31 c 0
510 719 m 0
 641 719 746 613 746 482 c 0
 746 407 711 339 656 296 c 1
 834 267 933 85 933 -8 c 0
 933 -40 921 -61 896 -61 c 0
 674 -61 353 -63 160 -63 c 0
 125 -63 109 -38 109 -1 c 0
 109 96 219 274 374 296 c 1
 313 339 273 402 273 482 c 0
 273 613 379 719 510 719 c 0
EndSplineSet
Validated: 1
EndChar

StartChar: uF00B5
Encoding: 983221 983221 65
Width: 1024
VWidth: 0
Flags: W
HStem: -84 782<402.419 597.581>
VStem: 100 824<-75.6657 59.4125> 263 474<366.013 558.581>
LayerCount: 2
Back
Fore
SplineSet
647 275 m 1xa0
 825 246 924 64 924 -29 c 0
 924 -61 912 -82 887 -82 c 0
 665 -82 344 -84 151 -84 c 0
 116 -84 100 -59 100 -22 c 0xc0
 100 75 210 253 365 275 c 1
 304 318 263 381 263 461 c 0
 263 592 369 698 500 698 c 0
 631 698 737 592 737 461 c 0
 737 386 702 318 647 275 c 1xa0
EndSplineSet
Validated: 1
EndChar

StartChar: uF00C0
Encoding: 983232 983232 66
Width: 1024
VWidth: 0
Flags: W
HStem: -141 32<132.404 859.596> 83 32<224.005 415.995> 371 32<224.005 767.995> 691 32<132.404 288 320 672 704 859.596>
VStem: 96 32<-104.596 686.596> 288 32<627.005 691 723 786.995> 672 32<627.005 691 723 786.995> 864 32<-104.596 686.596>
LayerCount: 2
Back
Fore
SplineSet
832 723 m 2
 867 723 896 694 896 659 c 2
 896 -77 l 2
 896 -112 867 -141 832 -141 c 2
 160 -141 l 2
 125 -141 96 -112 96 -77 c 2
 96 659 l 2
 96 694 125 723 160 723 c 2
 288 723 l 1
 288 771 l 2
 288 780 295 787 304 787 c 0
 313 787 320 780 320 771 c 2
 320 723 l 1
 672 723 l 1
 672 771 l 2
 672 780 679 787 688 787 c 0
 697 787 704 780 704 771 c 2
 704 723 l 1
 832 723 l 2
400 115 m 2
 409 115 416 108 416 99 c 0
 416 90 409 83 400 83 c 2
 240 83 l 2
 231 83 224 90 224 99 c 0
 224 108 231 115 240 115 c 2
 400 115 l 2
752 403 m 2
 761 403 768 396 768 387 c 0
 768 378 761 371 752 371 c 2
 240 371 l 2
 231 371 224 378 224 387 c 0
 224 396 231 403 240 403 c 2
 752 403 l 2
613 -20 m 1
 500 92 l 2
 494 98 494 109 500 115 c 0
 506 121 517 121 523 115 c 2
 613 25 l 1
 754 166 l 2
 760 172 770 172 776 166 c 0
 782 160 782 149 776 143 c 2
 613 -20 l 1
672 691 m 1
 320 691 l 1
 320 643 l 2
 320 634 313 627 304 627 c 0
 295 627 288 634 288 643 c 2
 288 691 l 1
 160 691 l 2
 142 691 128 677 128 659 c 2
 128 -77 l 2
 128 -95 142 -109 160 -109 c 2
 832 -109 l 2
 850 -109 864 -95 864 -77 c 2
 864 659 l 2
 864 677 850 691 832 691 c 2
 704 691 l 1
 704 643 l 2
 704 634 697 627 688 627 c 0
 679 627 672 634 672 643 c 2
 672 691 l 1
EndSplineSet
Validated: 1
EndChar

StartChar: uF00C1
Encoding: 983233 983233 67
Width: 1024
VWidth: 0
Flags: W
HStem: -141 32<32.0051 927.995> -77 32<160 288 416 544 672 800> 371 32<416 544> 531 32<160 288> 691 32<672 800>
VStem: 128 32<-45 531> 288 32<-45 531> 384 32<-45 371> 544 32<-45 371> 640 32<-45 691> 800 32<-45 691>
LayerCount: 2
Back
Fore
SplineSet
288 531 m 1
 160 531 l 1
 160 -45 l 1
 288 -45 l 1
 288 531 l 1
288 563 m 2
 306 563 320 549 320 531 c 2
 320 -45 l 2
 320 -63 306 -77 288 -77 c 2
 160 -77 l 2
 142 -77 128 -63 128 -45 c 2
 128 531 l 2
 128 549 142 563 160 563 c 2
 288 563 l 2
544 371 m 1
 416 371 l 1
 416 -45 l 1
 544 -45 l 1
 544 371 l 1
544 403 m 2
 562 403 576 389 576 371 c 2
 576 -45 l 2
 576 -63 562 -77 544 -77 c 2
 416 -77 l 2
 398 -77 384 -63 384 -45 c 2
 384 371 l 2
 384 389 398 403 416 403 c 2
 544 403 l 2
800 691 m 1
 672 691 l 1
 672 -45 l 1
 800 -45 l 1
 800 691 l 1
800 723 m 2
 818 723 832 709 832 691 c 2
 832 -45 l 2
 832 -63 818 -77 800 -77 c 2
 672 -77 l 2
 654 -77 640 -63 640 -45 c 2
 640 691 l 2
 640 709 654 723 672 723 c 2
 800 723 l 2
912 -109 m 2
 921 -109 928 -116 928 -125 c 0
 928 -134 921 -141 912 -141 c 2
 48 -141 l 2
 39 -141 32 -134 32 -125 c 0
 32 -116 39 -109 48 -109 c 2
 912 -109 l 2
EndSplineSet
Validated: 1
EndChar

StartChar: uF00C2
Encoding: 983234 983234 68
Width: 1024
VWidth: 0
Flags: W
HStem: -77 32<102 889> 659 32<124 867>
VStem: 48 32<-22 659> 912 32<-22 659>
LayerCount: 2
Back
Fore
SplineSet
682 211 m 1
 912 -22 l 1
 912 659 l 1
 518 260 l 2
 512 254 504 251 496 251 c 0
 488 251 479 254 473 260 c 2
 80 659 l 1
 80 -22 l 1
 309 211 l 1
 332 188 l 1
 102 -45 l 1
 889 -45 l 1
 659 188 l 1
 682 211 l 1
923 689 m 0
 935 684 944 673 944 659 c 2
 944 -45 l 2
 944 -63 930 -77 912 -77 c 2
 80 -77 l 2
 62 -77 48 -63 48 -45 c 2
 48 659 l 2
 48 673 57 684 69 689 c 0
 72 690 75 691 80 691 c 2
 912 691 l 2
 917 691 920 690 923 689 c 0
124 659 m 1
 496 282 l 1
 867 659 l 1
 124 659 l 1
80 -45 m 1
 80 -45 l 1
EndSplineSet
Validated: 1
EndChar

StartChar: uF00C3
Encoding: 983235 983235 69
Width: 1024
VWidth: 0
Flags: W
HStem: -170 32<384.39 658.639> -87 32<364.515 667.05> 737 32<477.213 510.895>
VStem: 180 32<334.871 375.816> 776 32<331.546 375.815>
LayerCount: 2
Back
Fore
SplineSet
595 278 m 1
 755 67 l 1
 730 48 l 1
 570 258 l 1
 595 278 l 1
604 557 m 1
 723 406 l 1
 698 386 l 1
 579 537 l 1
 604 557 l 1
139 26 m 1025
456 748 m 2
 466 762 480 769 494 769 c 0
 508 769 521 762 531 748 c 2
 797 381 l 2
 804 371 808 360 808 349 c 0
 808 330 797 312 777 303 c 1
 777 303 746 288 677 277 c 1
 857 68 l 2
 866 57 872 48 872 39 c 0
 872 27 861 15 839 -4 c 0
 821 -19 725 -83 518 -87 c 0
 513 -87 509 -87 504 -87 c 0
 285 -87 150 -1 150 -1 c 1
 130 8 118 22 118 38 c 0
 118 47 122 58 131 68 c 2
 314 281 l 1
 247 292 212 306 212 306 c 1
 191 314 180 331 180 350 c 0
 180 360 183 371 190 381 c 2
 456 748 l 2
150 36 m 0
 151 34 299 -55 518 -55 c 0
 736 -55 837 31 838 34 c 0
 839 37 837 42 833 47 c 2
 833 47 694 222 639 272 c 0
 635 276 622 285 622 293 c 0
 622 299 629 304 652 306 c 0
 729 314 763 332 764 332 c 0
 772 336 776 342 776 349 c 0
 776 353 775 357 772 362 c 2
 506 729 l 2
 502 734 498 737 494 737 c 0
 490 737 486 734 482 729 c 2
 216 362 l 2
 213 358 212 354 212 350 c 0
 212 343 216 338 224 335 c 0
 225 335 265 326 339 309 c 0
 354 305 358 299 358 292 c 0
 358 283 351 275 351 275 c 1
 155 47 l 2
 151 42 149 38 150 36 c 0
722 -127 m 1
 697 -152 626 -170 519 -170 c 0
 411 -170 337 -149 315 -127 c 1
 338 -105 l 1
 346 -113 415 -138 519 -138 c 0
 624 -138 687 -117 699 -105 c 1
 722 -127 l 1
EndSplineSet
Validated: 1
EndChar

StartChar: uF00C4
Encoding: 983236 983236 70
Width: 1024
VWidth: 0
Flags: W
HStem: -141 32<127 769> 179 32<257.005 449 481 672.995> 531 32<127 769> 628 31<257.02 864.98>
VStem: 95 32<-109 531> 449 32<-12.9949 179 211 402.995> 769 32<-109 531> 865 32<50.0051 628>
LayerCount: 2
Back
Fore
SplineSet
791 72 m 1025,0,-1
465 403 m 0,1,-1
 474 403 481 396 481 387 c 2,4,-1
 481 211 l 1,5,-1
 657 211 l 2,6,-1
 666 211 673 204 673 195 c 0,9,-1
 673 186 666 179 657 179 c 2,12,-1
 481 179 l 1,13,-1
 481 3 l 2,14,-1
 481 -6 474 -13 465 -13 c 0,17,-1
 456 -13 449 -6 449 3 c 2,20,-1
 449 179 l 1,21,-1
 273 179 l 2,22,-1
 264 179 257 186 257 195 c 0,25,-1
 257 204 264 211 273 211 c 2,28,-1
 449 211 l 1,29,-1
 449 387 l 2,30,-1
 449 396 456 403 465 403 c 0,1,-1
881 659 m 2,33,-1
 890 659 897 652 897 643 c 2,36,-1
 897 66 l 2,37,-1
 897 57 890 50 881 50 c 0,40,-1
 872 50 865 57 865 66 c 2,43,-1
 865 612 l 2,44,-1
 865 621 858 628 849 628 c 2,47,-1
 273 628 l 2,48,-1
 264 628 257 634 257 643 c 0,51,-1
 257 652 264 659 273 659 c 2,54,-1
 881 659 l 2,33,-1
769 563 m 2,55,-1
 787 563 801 549 801 531 c 2,58,-1
 801 -109 l 2,59,-1
 801 -127 787 -141 769 -141 c 2,62,-1
 127 -141 l 2,63,-1
 109 -141 95 -127 95 -109 c 2,66,-1
 95 531 l 2,67,-1
 95 549 109 563 127 563 c 2,70,-1
 769 563 l 2,55,-1
769 531 m 1,71,-1
 127 531 l 1,72,-1
 127 -109 l 1,73,-1
 769 -109 l 1,74,-1
 769 531 l 1,71,-1
EndSplineSet
Validated: 1
EndChar

StartChar: uF00C5
Encoding: 983237 983237 71
Width: 1024
VWidth: 0
Flags: W
HStem: -141 32<144 740.039 795.961 848> 372 32<635.2 675.739> 659 32<144 560 592 720 752 848>
VStem: 112 32<-109 659> 560 32<357 659> 720 32<357 659> 848 32<-109 659>
LayerCount: 2
Back
Fore
SplineSet
791 72 m 1025,0,-1
752 659 m 1,1,-1
 752 291 l 2,2,-1
 752 286 750 283 747 283 c 0,5,-1
 745 283 743 284 741 287 c 2,8,-1
 666 367 l 2,9,-1
 663 370 660 372 656 372 c 0,12,-1
 652 372 648 370 645 367 c 2,15,-1
 570 287 l 2,16,-1
 568 284 566 283 564 283 c 0,19,-1
 561 283 560 286 560 291 c 2,22,-1
 560 659 l 1,23,-1
 144 659 l 1,24,-1
 144 -109 l 1,25,-1
 144 -109 592 -109 720 -109 c 0,28,-1
 752 -109 752 -141 720 -141 c 0,31,-1
 592 -141 144 -141 144 -141 c 2,34,-1
 126 -141 112 -127 112 -109 c 2,37,-1
 112 659 l 2,38,-1
 112 677 126 691 144 691 c 2,41,-1
 576 691 l 1,42,-1
 736 691 l 1,43,-1
 848 691 l 2,44,-1
 866 691 880 677 880 659 c 2,47,-1
 880 -109 l 2,48,-1
 880 -127 866 -141 848 -141 c 2,51,-1
 816 -141 l 2,52,-1
 784 -141 784 -109 816 -109 c 2,55,-1
 848 -109 l 1,56,-1
 848 659 l 1,57,-1
 752 659 l 1,1,-1
592 659 m 1,58,-1
 592 357 l 1,59,-1
 621 389 l 2,60,-1
 630 399 643 404 656 404 c 0,63,-1
 669 404 681 399 690 389 c 2,66,-1
 720 357 l 1,67,-1
 720 659 l 1,68,-1
 592 659 l 1,58,-1
EndSplineSet
Validated: 1
EndChar

StartChar: uF00C6
Encoding: 983238 983238 72
Width: 1024
VWidth: 0
Flags: W
HStem: -2 32<80.0051 399.995> 89 32<656.478 722.32> 318 32<80.0051 399.995> 638 32<80.0051 496 528 880>
VStem: 496 32<26 638> 880 32<21 638>
LayerCount: 2
Back
Fore
SplineSet
791 72 m 1025,0,-1
384 30 m 2,1,-1
 393 30 400 23 400 14 c 0,4,-1
 400 5 393 -2 384 -2 c 2,7,-1
 96 -2 l 2,8,-1
 87 -2 80 5 80 14 c 0,11,-1
 80 23 87 30 96 30 c 2,14,-1
 384 30 l 2,1,-1
384 350 m 2,15,-1
 393 350 400 343 400 334 c 0,18,-1
 400 325 393 318 384 318 c 2,21,-1
 96 318 l 2,22,-1
 87 318 80 325 80 334 c 0,25,-1
 80 343 87 350 96 350 c 2,28,-1
 384 350 l 2,15,-1
880 638 m 1,29,-1
 528 638 l 1,30,-1
 528 26 l 1,31,-1
 657 112 l 2,32,-1
 666 118 677 121 689 121 c 0,35,-1
 699 121 709 118 717 113 c 2,38,-1
 880 21 l 1,39,-1
 880 638 l 1,29,-1
496 638 m 1,40,-1
 96 638 l 2,41,-1
 87 638 80 645 80 654 c 0,44,-1
 80 663 87 670 96 670 c 2,47,-1
 512 670 l 1,48,-1
 896 670 l 2,49,-1
 905 670 912 663 912 654 c 2,52,-1
 912 -18 l 2,53,-1
 912 -24 909 -28 904 -28 c 0,56,-1
 902 -28 900 -27 898 -26 c 2,59,-1
 701 86 l 2,60,-1
 697 88 694 89 689 89 c 0,63,-1
 684 89 678 88 674 85 c 2,66,-1
 509 -24 l 2,67,-1
 507 -26 505 -26 503 -26 c 0,70,-1
 499 -26 496 -23 496 -17 c 2,73,-1
 496 638 l 1,40,-1
EndSplineSet
Validated: 1
EndChar

StartChar: uF0040
Encoding: 983104 983104 73
Width: 1024
VWidth: 0
HStem: 659 64<389.667 634.333>
VStem: 96 64<-91.0195 427.867> 224 64<-43.5894 273.589> 736 64<-43.5894 273.589> 864 64<-91.0195 427.867>
LayerCount: 2
Back
Fore
SplineSet
288 -13 m 2
 288 -31 274 -45 256 -45 c 0
 238 -45 224 -31 224 -13 c 2
 224 243 l 2
 224 261 238 275 256 275 c 0
 274 275 288 261 288 243 c 2
 288 -13 l 2
800 -13 m 2
 800 -31 786 -45 768 -45 c 0
 750 -45 736 -31 736 -13 c 2
 736 243 l 2
 736 261 750 275 768 275 c 0
 786 275 800 261 800 243 c 2
 800 -13 l 2
160 307 m 2
 160 307 160 19 160 -45 c 0
 160 -77 144 -93 128 -93 c 0
 112 -93 96 -77 96 -45 c 0
 96 19 96 307 96 307 c 2
 96 537 282 723 512 723 c 0
 742 723 928 537 928 307 c 2
 928 307 928 19 928 -45 c 0
 928 -77 912 -93 896 -93 c 0
 880 -93 864 -77 864 -45 c 0
 864 19 864 307 864 307 c 2
 864 501 706 659 512 659 c 0
 318 659 160 501 160 307 c 2
EndSplineSet
Validated: 1
EndChar

StartChar: uF00C7
Encoding: 983239 983239 74
Width: 1024
VWidth: 0
Flags: W
HStem: 643 32<347.663 494.337 581 652.955>
VStem: 69 32<-13 79.582> 197 32<374.813 524.337> 613 32<374.793 524.337> 741 32<-13 80.7848> 773 32<374.793 524.337> 901 32<-13 80.7848>
LayerCount: 2
Back
Fore
SplineSet
741 -13 m 1xfa
 741 122 650 230 539 268 c 0
 510 278 l 1
 534 296 l 0
 582 331 613 387 613 451 c 0
 613 557 527 643 421 643 c 0
 315 643 229 557 229 451 c 0
 229 387 260 331 308 296 c 0
 332 278 l 1
 303 268 l 0
 192 230 101 122 101 -13 c 1
 69 -13 l 1
 69 126 153 236 267 288 c 1
 230 324 197 385 197 451 c 0
 197 575 297 675 421 675 c 0
 545 675 645 575 645 451 c 0
 645 387 619 330 575 288 c 1
 683 239 773 128 773 -13 c 1
 741 -13 l 1xfa
752 251 m 1025
949 -13 m 1025
581 643 m 2
 581 675 l 0
 705 675 805 575 805 451 c 0
 805 387 779 330 735 288 c 1
 843 239 933 128 933 -13 c 1
 901 -13 l 1
 901 122 810 230 699 268 c 0
 670 278 l 1
 694 296 l 0
 742 331 773 387 773 451 c 0xf6
 773 557 687 643 581 643 c 2
EndSplineSet
Validated: 1
EndChar

StartChar: uF0044
Encoding: 983108 983108 75
Width: 1024
VWidth: 0
HStem: -95 54<308.468 785> 87 64<317.411 695.589> 279 64<317.411 695.589> 471 64<317.411 695.589> 672 55<239 785>
VStem: 185 54<-94.7475 672> 785 54<-41 672>
LayerCount: 2
Back
Fore
SplineSet
785 727 m 2
 815 727 839 702 839 672 c 2
 839 -41 l 2
 839 -71 815 -95 785 -95 c 2
 348 -95 l 2
 321 -95 308 -82 308 -68 c 0
 308 -54 321 -41 348 -41 c 2
 785 -41 l 1
 785 672 l 1
 239 672 l 1
 239 -73 l 2
 239 -88 226 -95 212 -95 c 0
 198 -95 185 -88 185 -73 c 2
 185 672 l 2
 185 702 209 727 239 727 c 2
 785 727 l 2
665 471 m 2
 348 471 l 2
 330 471 316 485 316 503 c 0
 316 521 330 535 348 535 c 2
 665 535 l 2
 683 535 697 521 697 503 c 0
 697 485 683 471 665 471 c 2
665 279 m 2
 348 279 l 2
 330 279 316 293 316 311 c 0
 316 329 330 343 348 343 c 2
 665 343 l 2
 683 343 697 329 697 311 c 0
 697 293 683 279 665 279 c 2
665 87 m 2
 348 87 l 2
 330 87 316 101 316 119 c 0
 316 137 330 151 348 151 c 2
 665 151 l 2
 683 151 697 137 697 119 c 0
 697 101 683 87 665 87 c 2
EndSplineSet
Validated: 1
EndChar

StartChar: uF0083
Encoding: 983171 983171 76
Width: 1024
VWidth: 0
HStem: -103 52<282.283 475 549 741.717> -103 26<461 563> 51 51<307 486 538 717> 281 52<358.308 665.692> 435 51<358.308 665.692> 665 52<307 717>
VStem: 256 51<102 665> 486 26<-46.9168 -26> 512 26<-46.9168 -26> 717 51<102 665>
LayerCount: 2
Back
Fore
SplineSet
666 307 m 1024,0,-1
358 307 m 1024,1,-1
384 486 m 2,2,-1
 640 486 l 2,3,-1
 654 486 666 475 666 461 c 0,6,-1
 666 447 654 435 640 435 c 2,9,-1
 384 435 l 2,10,-1
 370 435 358 447 358 461 c 0,13,-1
 358 475 370 486 384 486 c 2,2,-1
717 665 m 1,16,-1
 307 665 l 1,17,-1
 307 102 l 1,18,-1
 444 102 580 102 717 102 c 1,21,-1
 717 665 l 1,16,-1
307 717 m 2,22,-1
 717 717 l 2,23,-1
 745 717 768 693 768 665 c 2,26,-1
 768 102 l 2,27,-1
 768 74 745 51 717 51 c 2,30,-1
 538 51 l 1,31,-1
 538 -26 l 2,32,-1
 538 -40 549 -51 563 -51 c 2,35,-1
 717 -51 l 2,36,-1
 731 -51 742 -63 742 -77 c 0,39,-1
 742 -91 731 -103 717 -103 c 2,42,-1
 307 -103 l 2,43,-1
 293 -103 282 -91 282 -77 c 0,46,-1
 282 -63 293 -51 307 -51 c 2,49,-1
 461 -51 l 2,50,-1
 475 -51 486 -40 486 -26 c 2,53,-1
 486 51 l 1,54,-1
 307 51 l 2,55,-1
 279 51 256 74 256 102 c 2,58,-1
 256 665 l 2,59,-1
 256 693 279 717 307 717 c 2,22,-1
461 -77 m 2,62,-1
 563 -77 l 2,63,-1
 535 -77 512 -54 512 -26 c 1,66,-1
 512 -54 489 -77 461 -77 c 2,62,-1
384 333 m 2,69,-1
 640 333 l 2,70,-1
 654 333 666 321 666 307 c 0,73,-1
 666 293 654 281 640 281 c 2,76,-1
 384 281 l 2,77,-1
 370 281 358 293 358 307 c 0,80,-1
 358 321 370 333 384 333 c 2,69,-1
EndSplineSet
Validated: 1
EndChar

StartChar: uF007B
Encoding: 983163 983163 77
Width: 1024
VWidth: 0
HStem: -77 51<179.308 844.692> 640 51<179.308 690.717>
VStem: 128 51<-25.6918 639.692> 845 51<-25.6918 434.692>
LayerCount: 2
Back
Fore
SplineSet
519 153 m 0
 513 153 507 155 502 160 c 0
 496 165 493 172 493 179 c 0
 493 185 495 191 499 196 c 2
 854 605 l 2
 860 611 867 614 874 614 c 0
 880 614 886 612 891 608 c 0
 896 603 899 596 899 589 c 0
 899 583 897 577 893 572 c 2
 538 162 l 2
 533 156 526 153 519 153 c 0
519 153 m 0
 513 153 508 155 503 159 c 2
 266 346 l 2
 259 351 256 359 256 367 c 0
 256 372 258 378 261 382 c 0
 266 388 274 392 281 392 c 0
 287 392 292 390 297 386 c 2
 535 199 l 2
 541 194 545 187 545 179 c 0
 545 173 543 168 539 163 c 0
 534 157 526 153 519 153 c 0
845 -0 m 2
 845 409 l 2
 845 423 856 435 870 435 c 0
 884 435 896 423 896 409 c 2
 896 -51 l 2
 896 -65 884 -77 870 -77 c 2
 154 -77 l 2
 140 -77 128 -65 128 -51 c 2
 128 665 l 2
 128 679 140 691 154 691 c 2
 666 691 l 2
 680 691 691 679 691 665 c 0
 691 651 680 640 666 640 c 2
 205 640 l 2
 191 640 179 628 179 614 c 2
 179 -0 l 2
 179 -14 191 -26 205 -26 c 2
 819 -26 l 2
 833 -26 845 -14 845 -0 c 2
EndSplineSet
Validated: 5
EndChar
